<?xml version="1.0" standalone="no"?>
<!DOCTYPE svg PUBLIC "-//W3C//DTD SVG 1.1//EN" "http://www.w3.org/Graphics/SVG/1.1/DTD/svg11.dtd" >
<svg xmlns="http://www.w3.org/2000/svg" xmlns:xlink="http://www.w3.org/1999/xlink" version="1.1">
<metadata>
Created by FontForge 20200427 at Fri Nov 18 10:02:13 2016
 By www
Copyright (c) 2016 Apple Inc. All rights reserved.
</metadata>
<defs>
<font id="SFProIconsRegular" horiz-adv-x="2444" >
  <font-face 
    font-family="SF Pro Icons Regular"
    font-weight="400"
    font-stretch="normal"
    units-per-em="2048"
    panose-1="2 0 5 3 0 0 0 0 0 0"
    ascent="1554"
    descent="-494"
    bbox="0 -494 2444 1950"
    underline-thickness="0"
    underline-position="20"
    unicode-range="U+0020-F8FF"
  />
<missing-glyph horiz-adv-x="0" 
 />
    <glyph glyph-name=".notdef" horiz-adv-x="0" 
 />
    <glyph glyph-name="glyph1" horiz-adv-x="0" 
 />
    <glyph glyph-name="glyph2" horiz-adv-x="682" 
 />
    <glyph glyph-name="space" unicode=" " horiz-adv-x="4000" 
 />
    <glyph glyph-name="block" unicode="&#x2588;" 
d="M0 1950h2444v-2444h-2444v2444z" />
    <glyph glyph-name="uniEA01" unicode="&#xea01;" 
d="M1537 1313h-9v-68h9l6 3l2 6v50l-2 6zM1086 1313h-9v-68h9l6 3l2 6v50l-3 6zM1720 1339h-996q-48 0 -80 -32q-33 -34 -33 -78v-997q0 -47 33.5 -81t79.5 -34h996q45 0 79 34t34 81v997q0 45 -34 78q-31 32 -79 32zM1620 1216q39 0 64 -25q27 -27 27 -62v-26l-117 113h26z
M1711 1033v0v-70l-257 253h70zM1506 1326h42q20 0 20 -21v-51q0 -11 -5 -17.5t-15 -6.5h-42v96zM1431 1326h52v-13h-28v-27h19v-13h-19v-28h28v-15h-52v96zM1335 1326h6l52 -48v48h13v-96h-6l-54 51v-51h-11v96zM1384 1216l327 -323v-71l-397 394h70zM1711 752v-73l-540 537
h73l467 -464v0zM1711 609v0v-71l-680 678h69zM1286 1326h24v-96h-24v96zM1216 1328h53v-15h-30v-27h21v-13h-21v-41h-23v96zM1139 1326h53v-13h-28v-27h19v-13h-19v-28h28v-15h-53v96zM1055 1326h42q20 0 20 -21v-51q0 -11 -5 -17.5t-15 -6.5h-42v96zM961 1326h6l54 -48v48
h13v-96h-7l-55 51v-51h-11v96zM876 1326h23v-72l2 -6l5 -2l7 2l3 6v72h22v-72q0 -11 -5.5 -17.5t-15.5 -6.5h-21q-20 0 -20 23v73zM733 1024l782 -783h-70l-712 713v70zM733 883l641 -642h-69l-572 573v69zM733 673v70l502 -502h-70zM1094 241h-70l-291 291v71zM761 268
q-22 22 -26 52l77 -78q-30 4 -51 26zM938 156q0 -11 -5.5 -17.5t-15.5 -6.5h-21q-20 0 -20 23v73h23v-72l2 -6l5 -3l7 3l3 6v72h22v-72zM884 241l-151 150v70l221 -220h-70zM1034 132h-7l-55 51v-51h-11v96h6l54 -48v48h13v-96zM1117 156q0 -24 -20 -24h-42v97l42 -1
q20 0 20 -21v-51zM1192 213h-28v-28h19v-13h-19v-27h28v-13h-53v96h53v-15zM1269 213h-30v-28h21v-13h-21v-40h-23v96h53v-15zM1310 132h-24v96h24v-96zM1406 132h-6l-54 51v-51h-11v96h6l52 -48v48h13v-96zM1483 213h-28v-28h19v-13h-19v-27h28v-13h-52v96h52v-15z
M1568 156q0 -24 -20 -24h-42v97l41 -1q21 0 21 -21v-51zM1620 241h-35l-852 853v35q0 15 6 31l911 -913q-15 -6 -30 -6zM1691 277l-922 924q23 17 51 18l890 -891q-2 -28 -19 -51zM1711 398l-820 818h69l751 -748v-70zM1086 213h-9v-68h9l6 4l2 7v50l-3 5zM1537 213h-9v-68
h9l6 4l2 7v50l-2 5z" />
    <glyph glyph-name="uniEA02" unicode="&#xea02;" 
d="M1086 1313h-9v-68h9l6 3l2 6v50l-3 6zM1537 1313h-9v-68h9l6 3l2 6v50l-2 6zM1086 213h-9v-68h9l6 4l2 7v50l-3 5zM1720 1339h-996q-48 0 -80 -32q-33 -34 -33 -78v-997q0 -47 33.5 -81t79.5 -34h996q45 0 79 34t34 81v997q0 45 -34 78q-31 32 -79 32zM1620 1216
q39 0 64 -25q27 -27 27 -62v-26l-117 113h26zM1711 1033v0v-70l-257 253h70zM1506 1326h42q20 0 20 -21v-51q0 -11 -5 -17.5t-15 -6.5h-42v96zM1431 1326h52v-13h-28v-27h19v-13h-19v-28h28v-15h-52v96zM1335 1326h6l52 -48v48h13v-96h-6l-54 51v-51h-11v96zM1384 1216
l327 -323v-71l-397 394h70zM1711 752v-73l-540 537h73l467 -464v0zM1711 609v0v-71l-680 678h69zM1286 1326h24v-96h-24v96zM1216 1328h53v-15h-30v-27h21v-13h-21v-41h-23v96zM1139 1326h53v-13h-28v-27h19v-13h-19v-28h28v-15h-53v96zM1055 1326h42q20 0 20 -21v-51
q0 -11 -5 -17.5t-15 -6.5h-42v96zM961 1326h6l54 -48v48h13v-96h-7l-55 51v-51h-11v96zM876 1326h23v-72l2 -6l5 -2l7 2l3 6v72h22v-72q0 -11 -5.5 -17.5t-15.5 -6.5h-21q-20 0 -20 23v73zM733 1024l782 -783h-70l-712 713v70zM733 883l641 -642h-69l-572 573v69zM733 673
v70l502 -502h-70zM1094 241h-70l-291 291v71zM761 268q-22 22 -26 52l77 -78q-30 4 -51 26zM938 156q0 -11 -5.5 -17.5t-15.5 -6.5h-21q-20 0 -20 23v73h23v-72l2 -6l5 -3l7 3l3 6v72h22v-72zM884 241l-151 150v70l221 -220h-70zM1034 132h-7l-55 51v-51h-11v96h6l54 -48v48
h13v-96zM1117 156q0 -24 -20 -24h-42v97l42 -1q20 0 20 -21v-51zM1192 213h-28v-28h19v-13h-19v-27h28v-13h-53v96h53v-15zM1269 213h-30v-28h21v-13h-21v-40h-23v96h53v-15zM1310 132h-24v96h24v-96zM1406 132h-6l-54 51v-51h-11v96h6l52 -48v48h13v-96zM1483 213h-28v-28
h19v-13h-19v-27h28v-13h-52v96h52v-15zM1568 156q0 -24 -20 -24h-42v97l41 -1q21 0 21 -21v-51zM1620 241h-35l-852 853v35q0 15 6 31l911 -913q-15 -6 -30 -6zM1691 277l-922 924q23 17 51 18l890 -891q-2 -28 -19 -51zM1711 398l-820 818h69l751 -748v-70zM1537 213h-9
v-68h9l6 4l2 7v50l-2 5z" />
    <glyph glyph-name="uniEA03" unicode="&#xea03;" 
d="M1086 1313h-9v-68h9l6 3l2 6v50l-3 6zM1537 1313h-9v-68h9l6 3l2 6v50l-2 6zM1537 213h-9v-68h9l6 4l2 7v50l-2 5zM1086 213h-9v-68h9l6 4l2 7v50l-3 5zM1720 1339h-996q-48 0 -80 -32q-33 -34 -33 -78v-997q0 -47 33.5 -81t79.5 -34h996q45 0 79 34t34 81v997
q0 45 -34 78q-31 32 -79 32zM1620 1216q39 0 64 -25q27 -27 27 -62v-26l-117 113h26zM1711 1033v0v-70l-257 253h70zM1506 1326h42q20 0 20 -21v-51q0 -11 -5 -17.5t-15 -6.5h-42v96zM1431 1326h52v-13h-28v-27h19v-13h-19v-28h28v-15h-52v96zM1335 1326h6l52 -48v48h13v-96
h-6l-54 51v-51h-11v96zM1384 1216l327 -323v-71l-397 394h70zM1711 752v-73l-540 537h73l467 -464v0zM1711 609v0v-71l-680 678h69zM1286 1326h24v-96h-24v96zM1216 1328h53v-15h-30v-27h21v-13h-21v-41h-23v96zM1139 1326h53v-13h-28v-27h19v-13h-19v-28h28v-15h-53v96z
M1055 1326h42q20 0 20 -21v-51q0 -11 -5 -17.5t-15 -6.5h-42v96zM961 1326h6l54 -48v48h13v-96h-7l-55 51v-51h-11v96zM876 1326h23v-72l2 -6l5 -2l7 2l3 6v72h22v-72q0 -11 -5.5 -17.5t-15.5 -6.5h-21q-20 0 -20 23v73zM733 1024l782 -783h-70l-712 713v70zM733 883
l641 -642h-69l-572 573v69zM733 673v70l502 -502h-70zM1094 241h-70l-291 291v71zM761 268q-22 22 -26 52l77 -78q-30 4 -51 26zM938 156q0 -11 -5.5 -17.5t-15.5 -6.5h-21q-20 0 -20 23v73h23v-72l2 -6l5 -3l7 3l3 6v72h22v-72zM884 241l-151 150v70l221 -220h-70z
M1034 132h-7l-55 51v-51h-11v96h6l54 -48v48h13v-96zM1117 156q0 -24 -20 -24h-42v97l42 -1q20 0 20 -21v-51zM1192 213h-28v-28h19v-13h-19v-27h28v-13h-53v96h53v-15zM1269 213h-30v-28h21v-13h-21v-40h-23v96h53v-15zM1310 132h-24v96h24v-96zM1406 132h-6l-54 51v-51
h-11v96h6l52 -48v48h13v-96zM1483 213h-28v-28h19v-13h-19v-27h28v-13h-52v96h52v-15zM1568 156q0 -24 -20 -24h-42v97l41 -1q21 0 21 -21v-51zM1620 241h-35l-852 853v35q0 15 6 31l911 -913q-15 -6 -30 -6zM1691 277l-922 924q23 17 51 18l890 -891q-2 -28 -19 -51z
M1711 398l-820 818h69l751 -748v-70z" />
    <glyph glyph-name="uniEA04" unicode="&#xea04;" 
d="M1537 1313h-9v-68h9l6 3l2 6v50l-2 6zM1720 1339h-996q-48 0 -80 -32q-33 -34 -33 -78v-997q0 -47 33.5 -81t79.5 -34h996q45 0 79 34t34 81v997q0 45 -34 78q-31 32 -79 32zM1620 1216q39 0 64 -25q27 -27 27 -62v-26l-117 113h26zM1711 1033v0v-70l-257 253h70z
M1506 1326h42q20 0 20 -21v-51q0 -11 -5 -17.5t-15 -6.5h-42v96zM1431 1326h52v-13h-28v-27h19v-13h-19v-28h28v-15h-52v96zM1335 1326h6l52 -48v48h13v-96h-6l-54 51v-51h-11v96zM1384 1216l327 -323v-71l-397 394h70zM1711 752v-73l-540 537h73l467 -464v0zM1711 609v0
v-71l-680 678h69zM1286 1326h24v-96h-24v96zM1216 1328h53v-15h-30v-27h21v-13h-21v-41h-23v96zM1139 1326h53v-13h-28v-27h19v-13h-19v-28h28v-15h-53v96zM1055 1326h42q20 0 20 -21v-51q0 -11 -5 -17.5t-15 -6.5h-42v96zM961 1326h6l54 -48v48h13v-96h-7l-55 51v-51h-11
v96zM876 1326h23v-72l2 -6l5 -2l7 2l3 6v72h22v-72q0 -11 -5.5 -17.5t-15.5 -6.5h-21q-20 0 -20 23v73zM733 1024l782 -783h-70l-712 713v70zM733 883l641 -642h-69l-572 573v69zM733 673v70l502 -502h-70zM1094 241h-70l-291 291v71zM761 268q-22 22 -26 52l77 -78
q-30 4 -51 26zM938 156q0 -11 -5.5 -17.5t-15.5 -6.5h-21q-20 0 -20 23v73h23v-72l2 -6l5 -3l7 3l3 6v72h22v-72zM884 241l-151 150v70l221 -220h-70zM1034 132h-7l-55 51v-51h-11v96h6l54 -48v48h13v-96zM1117 156q0 -24 -20 -24h-42v97l42 -1q20 0 20 -21v-51zM1192 213
h-28v-28h19v-13h-19v-27h28v-13h-53v96h53v-15zM1269 213h-30v-28h21v-13h-21v-40h-23v96h53v-15zM1310 132h-24v96h24v-96zM1406 132h-6l-54 51v-51h-11v96h6l52 -48v48h13v-96zM1483 213h-28v-28h19v-13h-19v-27h28v-13h-52v96h52v-15zM1568 156q0 -24 -20 -24h-42v97
l41 -1q21 0 21 -21v-51zM1620 241h-35l-852 853v35q0 15 6 31l911 -913q-15 -6 -30 -6zM1691 277l-922 924q23 17 51 18l890 -891q-2 -28 -19 -51zM1711 398l-820 818h69l751 -748v-70zM1537 213h-9v-68h9l6 4l2 7v50l-2 5zM1086 213h-9v-68h9l6 4l2 7v50l-3 5zM1086 1313
h-9v-68h9l6 3l2 6v50l-3 6z" />
    <glyph glyph-name="uniEA05" unicode="&#xea05;" 
d="M1537 213h-9v-68h9l6 4l2 7v50l-2 5zM1720 1339h-996q-48 0 -80 -32q-33 -34 -33 -78v-997q0 -47 33.5 -81t79.5 -34h996q45 0 79 34t34 81v997q0 45 -34 78q-31 32 -79 32zM1620 1216q39 0 64 -25q27 -27 27 -62v-26l-117 113h26zM1711 1033v0v-70l-257 253h70z
M1506 1326h42q20 0 20 -21v-51q0 -11 -5 -17.5t-15 -6.5h-42v96zM1431 1326h52v-13h-28v-27h19v-13h-19v-28h28v-15h-52v96zM1335 1326h6l52 -48v48h13v-96h-6l-54 51v-51h-11v96zM1384 1216l327 -323v-71l-397 394h70zM1711 752v-73l-540 537h73l467 -464v0zM1711 609v0
v-71l-680 678h69zM1286 1326h24v-96h-24v96zM1216 1328h53v-15h-30v-27h21v-13h-21v-41h-23v96zM1139 1326h53v-13h-28v-27h19v-13h-19v-28h28v-15h-53v96zM1055 1326h42q20 0 20 -21v-51q0 -11 -5 -17.5t-15 -6.5h-42v96zM961 1326h6l54 -48v48h13v-96h-7l-55 51v-51h-11
v96zM876 1326h23v-72l2 -6l5 -2l7 2l3 6v72h22v-72q0 -11 -5.5 -17.5t-15.5 -6.5h-21q-20 0 -20 23v73zM733 1024l782 -783h-70l-712 713v70zM733 883l641 -642h-69l-572 573v69zM733 673v70l502 -502h-70zM1094 241h-70l-291 291v71zM761 268q-22 22 -26 52l77 -78
q-30 4 -51 26zM938 156q0 -11 -5.5 -17.5t-15.5 -6.5h-21q-20 0 -20 23v73h23v-72l2 -6l5 -3l7 3l3 6v72h22v-72zM884 241l-151 150v70l221 -220h-70zM1034 132h-7l-55 51v-51h-11v96h6l54 -48v48h13v-96zM1117 156q0 -24 -20 -24h-42v97l42 -1q20 0 20 -21v-51zM1192 213
h-28v-28h19v-13h-19v-27h28v-13h-53v96h53v-15zM1269 213h-30v-28h21v-13h-21v-40h-23v96h53v-15zM1310 132h-24v96h24v-96zM1406 132h-6l-54 51v-51h-11v96h6l52 -48v48h13v-96zM1483 213h-28v-28h19v-13h-19v-27h28v-13h-52v96h52v-15zM1568 156q0 -24 -20 -24h-42v97
l41 -1q21 0 21 -21v-51zM1620 241h-35l-852 853v35q0 15 6 31l911 -913q-15 -6 -30 -6zM1691 277l-922 924q23 17 51 18l890 -891q-2 -28 -19 -51zM1711 398l-820 818h69l751 -748v-70zM1086 213h-9v-68h9l6 4l2 7v50l-3 5zM1086 1313h-9v-68h9l6 3l2 6v50l-3 6zM1537 1313
h-9v-68h9l6 3l2 6v50l-2 6z" />
    <glyph glyph-name="uniEA06" unicode="&#xea06;" 
d="M1799 1307q-31 32 -79 32h-996q-48 0 -80 -32q-33 -34 -33 -78v-997q0 -47 33.5 -81t79.5 -34h996q45 0 79 34t34 81v997q0 45 -34 78zM1620 1216q39 0 64 -25q27 -27 27 -62v-26l-117 113h26zM1711 1033v0v-70l-257 253h70zM1506 1326h42q20 0 20 -21v-51
q0 -11 -5 -17.5t-15 -6.5h-42v96zM1431 1326h52v-13h-28v-27h19v-13h-19v-28h28v-15h-52v96zM1335 1326h6l52 -48v48h13v-96h-6l-54 51v-51h-11v96zM1384 1216l327 -323v-71l-397 394h70zM1711 752v-73l-540 537h73l467 -464v0zM1711 609v0v-71l-680 678h69zM1286 1326h24
v-96h-24v96zM1216 1328h53v-15h-30v-27h21v-13h-21v-41h-23v96zM1139 1326h53v-13h-28v-27h19v-13h-19v-28h28v-15h-53v96zM1055 1326h42q20 0 20 -21v-51q0 -11 -5 -17.5t-15 -6.5h-42v96zM961 1326h6l54 -48v48h13v-96h-7l-55 51v-51h-11v96zM876 1326h23v-72l2 -6l5 -2
l7 2l3 6v72h22v-72q0 -11 -5.5 -17.5t-15.5 -6.5h-21q-20 0 -20 23v73zM733 1024l782 -783h-70l-712 713v70zM733 883l641 -642h-69l-572 573v69zM733 673v70l502 -502h-70zM1094 241h-70l-291 291v71zM761 268q-22 22 -26 52l77 -78q-30 4 -51 26zM938 156
q0 -11 -5.5 -17.5t-15.5 -6.5h-21q-20 0 -20 23v73h23v-72l2 -6l5 -3l7 3l3 6v72h22v-72zM884 241l-151 150v70l221 -220h-70zM1034 132h-7l-55 51v-51h-11v96h6l54 -48v48h13v-96zM1117 156q0 -24 -20 -24h-42v97l42 -1q20 0 20 -21v-51zM1192 213h-28v-28h19v-13h-19v-27
h28v-13h-53v96h53v-15zM1269 213h-30v-28h21v-13h-21v-40h-23v96h53v-15zM1310 132h-24v96h24v-96zM1406 132h-6l-54 51v-51h-11v96h6l52 -48v48h13v-96zM1483 213h-28v-28h19v-13h-19v-27h28v-13h-52v96h52v-15zM1568 156q0 -24 -20 -24h-42v97l41 -1q21 0 21 -21v-51z
M1620 241h-35l-852 853v35q0 15 6 31l911 -913q-15 -6 -30 -6zM1691 277l-922 924q23 17 51 18l890 -891q-2 -28 -19 -51zM1711 398l-820 818h69l751 -748v-70zM1537 1313h-9v-68h9l6 3l2 6v50l-2 6zM1537 213h-9v-68h9l6 4l2 7v50l-2 5zM1086 213h-9v-68h9l6 4l2 7v50l-3 5
zM1086 1313h-9v-68h9l6 3l2 6v50l-3 6z" />
    <glyph glyph-name="uniEA07" unicode="&#xea07;" 
d="M1086 213h-9v-68h9l6 4l2 7v50l-3 5zM1537 213h-9v-68h9l6 4l2 7v50l-2 5zM1720 117q45 0 79 34t34 81v997q0 45 -34 78q-31 32 -79 32h-996q-48 0 -80 -32q-33 -34 -33 -78v-997q0 -47 33.5 -81t79.5 -34h996zM761 268q-22 22 -26 52l77 -78q-30 4 -51 26zM938 156
q0 -11 -5.5 -17.5t-15.5 -6.5h-21q-20 0 -20 23v73h23v-72l2 -6l5 -3l7 3l3 6v72h22v-72zM884 241l-151 150v70l221 -220h-70zM1094 241h-70l-291 291v71zM733 673v70l502 -502h-70zM1034 132h-7l-55 51v-51h-11v96h6l54 -48v48h13v-96zM1117 156q0 -24 -20 -24h-42v97
l42 -1q20 0 20 -21v-51zM1192 213h-28v-28h19v-13h-19v-27h28v-13h-53v96h53v-15zM1269 213h-30v-28h21v-13h-21v-40h-23v96h53v-15zM1310 132h-24v96h24v-96zM1406 132h-6l-54 51v-51h-11v96h6l52 -48v48h13v-96zM1483 213h-28v-28h19v-13h-19v-27h28v-13h-52v96h52v-15z
M1568 156q0 -24 -20 -24h-42v97l41 -1q21 0 21 -21v-51zM1620 1216q39 0 64 -25q27 -27 27 -62v-26l-117 113h26zM1711 1033v0v-70l-257 253h70zM1506 1326h42q20 0 20 -21v-51q0 -11 -5 -17.5t-15 -6.5h-42v96zM1431 1326h52v-13h-28v-27h19v-13h-19v-28h28v-15h-52v96z
M1335 1326h6l52 -48v48h13v-96h-6l-54 51v-51h-11v96zM1384 1216l327 -323v-71l-397 394h70zM1711 752v-73l-540 537h73l467 -464v0zM1711 609v0v-71l-680 678h69zM1286 1326h24v-96h-24v96zM1216 1328h53v-15h-30v-27h21v-13h-21v-41h-23v96zM1139 1326h53v-13h-28v-27h19
v-13h-19v-28h28v-15h-53v96zM1055 1326h42q20 0 20 -21v-51q0 -11 -5 -17.5t-15 -6.5h-42v96zM961 1326h6l54 -48v48h13v-96h-7l-55 51v-51h-11v96zM1711 468v0v-70l-820 818h69zM876 1326h23v-72l2 -6l5 -2l7 2l3 6v72h22v-72q0 -11 -5.5 -17.5t-15.5 -6.5h-21
q-20 0 -20 23v73zM820 1219l890 -891q-2 -28 -19 -51l-922 924q23 17 51 18zM733 1129q0 15 6 31l911 -913q-15 -6 -30 -6h-35l-852 853v35zM733 1024l782 -783h-70l-712 713v70zM733 883l641 -642h-69l-572 573v69zM1086 1313h-9v-68h9l6 3l2 6v50l-3 6zM1537 1313h-9v-68
h9l6 3l2 6v50l-2 6z" />
    <glyph glyph-name="uniEA08" unicode="&#xea08;" 
d="M1086 213h-9v-68h9l6 4l2 7v50l-3 5zM724 1339q-48 0 -80 -32q-33 -34 -33 -78v-997q0 -47 33.5 -81t79.5 -34h996q45 0 79 34t34 81v997q0 45 -34 78q-31 32 -79 32h-996zM1620 1216q39 0 64 -25q27 -27 27 -62v-26l-117 113h26zM1711 1033v0v-70l-257 253h70z
M1506 1326h42q20 0 20 -21v-51q0 -11 -5 -17.5t-15 -6.5h-42v96zM1431 1326h52v-13h-28v-27h19v-13h-19v-28h28v-15h-52v96zM1335 1326h6l52 -48v48h13v-96h-6l-54 51v-51h-11v96zM1384 1216l327 -323v-71l-397 394h70zM1711 752v-73l-540 537h73l467 -464v0zM1711 609v0
v-71l-680 678h69zM1286 1326h24v-96h-24v96zM1216 1328h53v-15h-30v-27h21v-13h-21v-41h-23v96zM1139 1326h53v-13h-28v-27h19v-13h-19v-28h28v-15h-53v96zM1055 1326h42q20 0 20 -21v-51q0 -11 -5 -17.5t-15 -6.5h-42v96zM961 1326h6l54 -48v48h13v-96h-7l-55 51v-51h-11
v96zM876 1326h23v-72l2 -6l5 -2l7 2l3 6v72h22v-72q0 -11 -5.5 -17.5t-15.5 -6.5h-21q-20 0 -20 23v73zM733 1024l782 -783h-70l-712 713v70zM733 883l641 -642h-69l-572 573v69zM733 673v70l502 -502h-70zM1094 241h-70l-291 291v71zM761 268q-22 22 -26 52l77 -78
q-30 4 -51 26zM938 156q0 -11 -5.5 -17.5t-15.5 -6.5h-21q-20 0 -20 23v73h23v-72l2 -6l5 -3l7 3l3 6v72h22v-72zM884 241l-151 150v70l221 -220h-70zM1034 132h-7l-55 51v-51h-11v96h6l54 -48v48h13v-96zM1117 156q0 -24 -20 -24h-42v97l42 -1q20 0 20 -21v-51zM1192 213
h-28v-28h19v-13h-19v-27h28v-13h-53v96h53v-15zM1269 213h-30v-28h21v-13h-21v-40h-23v96h53v-15zM1310 132h-24v96h24v-96zM1406 132h-6l-54 51v-51h-11v96h6l52 -48v48h13v-96zM1483 213h-28v-28h19v-13h-19v-27h28v-13h-52v96h52v-15zM1568 156q0 -24 -20 -24h-42v97
l41 -1q21 0 21 -21v-51zM1620 241h-35l-852 853v35q0 15 6 31l911 -913q-15 -6 -30 -6zM1691 277l-922 924q23 17 51 18l890 -891q-2 -28 -19 -51zM1711 398l-820 818h69l751 -748v-70zM1537 213h-9v-68h9l6 4l2 7v50l-2 5zM1537 1313h-9v-68h9l6 3l2 6v50l-2 6zM1086 1313
h-9v-68h9l6 3l2 6v50l-3 6z" />
    <glyph glyph-name="uniEA09" unicode="&#xea09;" 
d="M1537 213h-9v-68h9l6 4l2 7v50l-2 5zM1537 1313h-9v-68h9l6 3l2 6v50l-2 6zM1720 117q45 0 79 34t34 81v997q0 45 -34 78q-31 32 -79 32h-996q-48 0 -80 -32q-33 -34 -33 -78v-997q0 -47 33.5 -81t79.5 -34h996zM761 268q-22 22 -26 52l77 -78q-30 4 -51 26zM938 156
q0 -11 -5.5 -17.5t-15.5 -6.5h-21q-20 0 -20 23v73h23v-72l2 -6l5 -3l7 3l3 6v72h22v-72zM884 241l-151 150v70l221 -220h-70zM1094 241h-70l-291 291v71zM733 673v70l502 -502h-70zM1034 132h-7l-55 51v-51h-11v96h6l54 -48v48h13v-96zM1117 156q0 -24 -20 -24h-42v97
l42 -1q20 0 20 -21v-51zM1192 213h-28v-28h19v-13h-19v-27h28v-13h-53v96h53v-15zM1269 213h-30v-28h21v-13h-21v-40h-23v96h53v-15zM1310 132h-24v96h24v-96zM1406 132h-6l-54 51v-51h-11v96h6l52 -48v48h13v-96zM1483 213h-28v-28h19v-13h-19v-27h28v-13h-52v96h52v-15z
M1568 156q0 -24 -20 -24h-42v97l41 -1q21 0 21 -21v-51zM1620 1216q39 0 64 -25q27 -27 27 -62v-26l-117 113h26zM1711 1033v0v-70l-257 253h70zM1506 1326h42q20 0 20 -21v-51q0 -11 -5 -17.5t-15 -6.5h-42v96zM1431 1326h52v-13h-28v-27h19v-13h-19v-28h28v-15h-52v96z
M1335 1326h6l52 -48v48h13v-96h-6l-54 51v-51h-11v96zM1384 1216l327 -323v-71l-397 394h70zM1711 752v-73l-540 537h73l467 -464v0zM1711 609v0v-71l-680 678h69zM1286 1326h24v-96h-24v96zM1216 1328h53v-15h-30v-27h21v-13h-21v-41h-23v96zM1139 1326h53v-13h-28v-27h19
v-13h-19v-28h28v-15h-53v96zM1055 1326h42q20 0 20 -21v-51q0 -11 -5 -17.5t-15 -6.5h-42v96zM961 1326h6l54 -48v48h13v-96h-7l-55 51v-51h-11v96zM1711 468v0v-70l-820 818h69zM876 1326h23v-72l2 -6l5 -2l7 2l3 6v72h22v-72q0 -11 -5.5 -17.5t-15.5 -6.5h-21
q-20 0 -20 23v73zM820 1219l890 -891q-2 -28 -19 -51l-922 924q23 17 51 18zM733 1129q0 15 6 31l911 -913q-15 -6 -30 -6h-35l-852 853v35zM733 1024l782 -783h-70l-712 713v70zM733 883l641 -642h-69l-572 573v69zM1086 213h-9v-68h9l6 4l2 7v50l-3 5zM1086 1313h-9v-68h9
l6 3l2 6v50l-3 6z" />
    <glyph glyph-name="uniEA0A" unicode="&#xea0a;" 
d="M1086 213h-9v-68h9l6 4l2 7v50l-3 5zM1720 1339h-996q-48 0 -80 -32q-33 -34 -33 -78v-997q0 -47 33.5 -81t79.5 -34h996q45 0 79 34t34 81v997q0 45 -34 78q-31 32 -79 32zM1620 1216q39 0 64 -25q27 -27 27 -62v-26l-117 113h26zM1711 1033v0v-70l-257 253h70z
M1506 1326h42q20 0 20 -21v-51q0 -11 -5 -17.5t-15 -6.5h-42v96zM1431 1326h52v-13h-28v-27h19v-13h-19v-28h28v-15h-52v96zM1335 1326h6l52 -48v48h13v-96h-6l-54 51v-51h-11v96zM1384 1216l327 -323v-71l-397 394h70zM1711 752v-73l-540 537h73l467 -464v0zM1711 609v0
v-71l-680 678h69zM1286 1326h24v-96h-24v96zM1216 1328h53v-15h-30v-27h21v-13h-21v-41h-23v96zM1139 1326h53v-13h-28v-27h19v-13h-19v-28h28v-15h-53v96zM1055 1326h42q20 0 20 -21v-51q0 -11 -5 -17.5t-15 -6.5h-42v96zM961 1326h6l54 -48v48h13v-96h-7l-55 51v-51h-11
v96zM876 1326h23v-72l2 -6l5 -2l7 2l3 6v72h22v-72q0 -11 -5.5 -17.5t-15.5 -6.5h-21q-20 0 -20 23v73zM733 1024l782 -783h-70l-712 713v70zM733 883l641 -642h-69l-572 573v69zM733 673v70l502 -502h-70zM1094 241h-70l-291 291v71zM761 268q-22 22 -26 52l77 -78
q-30 4 -51 26zM938 156q0 -11 -5.5 -17.5t-15.5 -6.5h-21q-20 0 -20 23v73h23v-72l2 -6l5 -3l7 3l3 6v72h22v-72zM884 241l-151 150v70l221 -220h-70zM1034 132h-7l-55 51v-51h-11v96h6l54 -48v48h13v-96zM1117 156q0 -24 -20 -24h-42v97l42 -1q20 0 20 -21v-51zM1192 213
h-28v-28h19v-13h-19v-27h28v-13h-53v96h53v-15zM1269 213h-30v-28h21v-13h-21v-40h-23v96h53v-15zM1310 132h-24v96h24v-96zM1406 132h-6l-54 51v-51h-11v96h6l52 -48v48h13v-96zM1483 213h-28v-28h19v-13h-19v-27h28v-13h-52v96h52v-15zM1568 156q0 -24 -20 -24h-42v97
l41 -1q21 0 21 -21v-51zM1620 241h-35l-852 853v35q0 15 6 31l911 -913q-15 -6 -30 -6zM1691 277l-922 924q23 17 51 18l890 -891q-2 -28 -19 -51zM1711 398l-820 818h69l751 -748v-70zM1086 1313h-9v-68h9l6 3l2 6v50l-3 6zM1537 1313h-9v-68h9l6 3l2 6v50l-2 6zM1537 213
h-9v-68h9l6 4l2 7v50l-2 5z" />
    <glyph glyph-name="uniEA0B" unicode="&#xea0b;" 
d="M1086 1313h-9v-68h9l6 3l2 6v50l-3 6zM1537 1313h-9v-68h9l6 3l2 6v50l-2 6zM1537 213h-9v-68h9l6 4l2 7v50l-2 5zM1720 1339h-996q-48 0 -80 -32q-33 -34 -33 -78v-997q0 -47 33.5 -81t79.5 -34h996q45 0 79 34t34 81v997q0 45 -34 78q-31 32 -79 32zM1620 1216
q39 0 64 -25q27 -27 27 -62v-26l-117 113h26zM1711 1033v0v-70l-257 253h70zM1506 1326h42q20 0 20 -21v-51q0 -11 -5 -17.5t-15 -6.5h-42v96zM1431 1326h52v-13h-28v-27h19v-13h-19v-28h28v-15h-52v96zM1335 1326h6l52 -48v48h13v-96h-6l-54 51v-51h-11v96zM1384 1216
l327 -323v-71l-397 394h70zM1711 752v-73l-540 537h73l467 -464v0zM1711 609v0v-71l-680 678h69zM1286 1326h24v-96h-24v96zM1216 1328h53v-15h-30v-27h21v-13h-21v-41h-23v96zM1139 1326h53v-13h-28v-27h19v-13h-19v-28h28v-15h-53v96zM1055 1326h42q20 0 20 -21v-51
q0 -11 -5 -17.5t-15 -6.5h-42v96zM961 1326h6l54 -48v48h13v-96h-7l-55 51v-51h-11v96zM876 1326h23v-72l2 -6l5 -2l7 2l3 6v72h22v-72q0 -11 -5.5 -17.5t-15.5 -6.5h-21q-20 0 -20 23v73zM733 1024l782 -783h-70l-712 713v70zM733 883l641 -642h-69l-572 573v69zM733 673
v70l502 -502h-70zM1094 241h-70l-291 291v71zM761 268q-22 22 -26 52l77 -78q-30 4 -51 26zM938 156q0 -11 -5.5 -17.5t-15.5 -6.5h-21q-20 0 -20 23v73h23v-72l2 -6l5 -3l7 3l3 6v72h22v-72zM884 241l-151 150v70l221 -220h-70zM1034 132h-7l-55 51v-51h-11v96h6l54 -48v48
h13v-96zM1117 156q0 -24 -20 -24h-42v97l42 -1q20 0 20 -21v-51zM1192 213h-28v-28h19v-13h-19v-27h28v-13h-53v96h53v-15zM1269 213h-30v-28h21v-13h-21v-40h-23v96h53v-15zM1310 132h-24v96h24v-96zM1406 132h-6l-54 51v-51h-11v96h6l52 -48v48h13v-96zM1483 213h-28v-28
h19v-13h-19v-27h28v-13h-52v96h52v-15zM1568 156q0 -24 -20 -24h-42v97l41 -1q21 0 21 -21v-51zM1620 241h-35l-852 853v35q0 15 6 31l911 -913q-15 -6 -30 -6zM1691 277l-922 924q23 17 51 18l890 -891q-2 -28 -19 -51zM1711 398l-820 818h69l751 -748v-70zM1086 213h-9
v-68h9l6 4l2 7v50l-3 5z" />
    <glyph glyph-name="uniEA0C" unicode="&#xea0c;" 
d="M1086 213h-9v-68h9l6 4l2 7v50l-3 5zM1537 213h-9v-68h9l6 4l2 7v50l-2 5zM1086 1313h-9v-68h9l6 3l2 6v50l-3 6zM1537 1313h-9v-68h9l6 3l2 6v50l-2 6zM1720 1339h-996q-48 0 -80 -32q-33 -34 -33 -78v-997q0 -47 33.5 -81t79.5 -34h996q45 0 79 34t34 81v997
q0 45 -34 78q-31 32 -79 32zM1620 1216q39 0 64 -25q27 -27 27 -62v-26l-117 113h26zM1711 1033v0v-70l-257 253h70zM1506 1326h42q20 0 20 -21v-51q0 -11 -5 -17.5t-15 -6.5h-42v96zM1431 1326h52v-13h-28v-27h19v-13h-19v-28h28v-15h-52v96zM1335 1326h6l52 -48v48h13v-96
h-6l-54 51v-51h-11v96zM1384 1216l327 -323v-71l-397 394h70zM1711 752v-73l-540 537h73l467 -464v0zM1711 609v0v-71l-680 678h69zM1286 1326h24v-96h-24v96zM1216 1328h53v-15h-30v-27h21v-13h-21v-41h-23v96zM1139 1326h53v-13h-28v-27h19v-13h-19v-28h28v-15h-53v96z
M1055 1326h42q20 0 20 -21v-51q0 -11 -5 -17.5t-15 -6.5h-42v96zM961 1326h6l54 -48v48h13v-96h-7l-55 51v-51h-11v96zM876 1326h23v-72l2 -6l5 -2l7 2l3 6v72h22v-72q0 -11 -5.5 -17.5t-15.5 -6.5h-21q-20 0 -20 23v73zM733 1024l782 -783h-70l-712 713v70zM733 883
l641 -642h-69l-572 573v69zM733 673v70l502 -502h-70zM1094 241h-70l-291 291v71zM761 268q-22 22 -26 52l77 -78q-30 4 -51 26zM938 156q0 -11 -5.5 -17.5t-15.5 -6.5h-21q-20 0 -20 23v73h23v-72l2 -6l5 -3l7 3l3 6v72h22v-72zM884 241l-151 150v70l221 -220h-70z
M1034 132h-7l-55 51v-51h-11v96h6l54 -48v48h13v-96zM1117 156q0 -24 -20 -24h-42v97l42 -1q20 0 20 -21v-51zM1192 213h-28v-28h19v-13h-19v-27h28v-13h-53v96h53v-15zM1269 213h-30v-28h21v-13h-21v-40h-23v96h53v-15zM1310 132h-24v96h24v-96zM1406 132h-6l-54 51v-51
h-11v96h6l52 -48v48h13v-96zM1483 213h-28v-28h19v-13h-19v-27h28v-13h-52v96h52v-15zM1568 156q0 -24 -20 -24h-42v97l41 -1q21 0 21 -21v-51zM1620 241h-35l-852 853v35q0 15 6 31l911 -913q-15 -6 -30 -6zM1691 277l-922 924q23 17 51 18l890 -891q-2 -28 -19 -51z
M1711 398l-820 818h69l751 -748v-70z" />
    <glyph glyph-name="uniEA0D" unicode="&#xea0d;" 
d="M1086 213h-9v-68h9l6 4l2 7v50l-3 5zM1537 213h-9v-68h9l6 4l2 7v50l-2 5zM1720 1339h-996q-48 0 -80 -32q-33 -34 -33 -78v-997q0 -47 33.5 -81t79.5 -34h996q45 0 79 34t34 81v997q0 45 -34 78q-31 32 -79 32zM1620 1216q39 0 64 -25q27 -27 27 -62v-26l-117 113h26z
M1711 1033v0v-70l-257 253h70zM1506 1326h42q20 0 20 -21v-51q0 -11 -5 -17.5t-15 -6.5h-42v96zM1431 1326h52v-13h-28v-27h19v-13h-19v-28h28v-15h-52v96zM1335 1326h6l52 -48v48h13v-96h-6l-54 51v-51h-11v96zM1384 1216l327 -323v-71l-397 394h70zM1711 752v-73l-540 537
h73l467 -464v0zM1711 609v0v-71l-680 678h69zM1286 1326h24v-96h-24v96zM1216 1328h53v-15h-30v-27h21v-13h-21v-41h-23v96zM1139 1326h53v-13h-28v-27h19v-13h-19v-28h28v-15h-53v96zM1055 1326h42q20 0 20 -21v-51q0 -11 -5 -17.5t-15 -6.5h-42v96zM961 1326h6l54 -48v48
h13v-96h-7l-55 51v-51h-11v96zM876 1326h23v-72l2 -6l5 -2l7 2l3 6v72h22v-72q0 -11 -5.5 -17.5t-15.5 -6.5h-21q-20 0 -20 23v73zM733 1024l782 -783h-70l-712 713v70zM733 883l641 -642h-69l-572 573v69zM733 673v70l502 -502h-70zM1094 241h-70l-291 291v71zM761 268
q-22 22 -26 52l77 -78q-30 4 -51 26zM938 156q0 -11 -5.5 -17.5t-15.5 -6.5h-21q-20 0 -20 23v73h23v-72l2 -6l5 -3l7 3l3 6v72h22v-72zM884 241l-151 150v70l221 -220h-70zM1034 132h-7l-55 51v-51h-11v96h6l54 -48v48h13v-96zM1117 156q0 -24 -20 -24h-42v97l42 -1
q20 0 20 -21v-51zM1192 213h-28v-28h19v-13h-19v-27h28v-13h-53v96h53v-15zM1269 213h-30v-28h21v-13h-21v-40h-23v96h53v-15zM1310 132h-24v96h24v-96zM1406 132h-6l-54 51v-51h-11v96h6l52 -48v48h13v-96zM1483 213h-28v-28h19v-13h-19v-27h28v-13h-52v96h52v-15z
M1568 156q0 -24 -20 -24h-42v97l41 -1q21 0 21 -21v-51zM1620 241h-35l-852 853v35q0 15 6 31l911 -913q-15 -6 -30 -6zM1691 277l-922 924q23 17 51 18l890 -891q-2 -28 -19 -51zM1711 398l-820 818h69l751 -748v-70zM1086 1313h-9v-68h9l6 3l2 6v50l-3 6zM1537 1313h-9
v-68h9l6 3l2 6v50l-2 6z" />
    <glyph glyph-name="uniEA0E" unicode="&#xea0e;" 
d="M1537 1313h-9v-68h9l6 3l2 6v50l-2 6zM1086 213h-9v-68h9l6 4l2 7v50l-3 5zM1537 213h-9v-68h9l6 4l2 7v50l-2 5zM1086 1313h-9v-68h9l6 3l2 6v50l-3 6zM1720 1339h-996q-48 0 -80 -32q-33 -34 -33 -78v-997q0 -47 33.5 -81t79.5 -34h996q45 0 79 34t34 81v997
q0 45 -34 78q-31 32 -79 32zM1620 1216q39 0 64 -25q27 -27 27 -62v-26l-117 113h26zM1711 1033v0v-70l-257 253h70zM1506 1326h42q20 0 20 -21v-51q0 -11 -5 -17.5t-15 -6.5h-42v96zM1431 1326h52v-13h-28v-27h19v-13h-19v-28h28v-15h-52v96zM1335 1326h6l52 -48v48h13v-96
h-6l-54 51v-51h-11v96zM1384 1216l327 -323v-71l-397 394h70zM1711 752v-73l-540 537h73l467 -464v0zM1711 609v0v-71l-680 678h69zM1286 1326h24v-96h-24v96zM1216 1328h53v-15h-30v-27h21v-13h-21v-41h-23v96zM1139 1326h53v-13h-28v-27h19v-13h-19v-28h28v-15h-53v96z
M1055 1326h42q20 0 20 -21v-51q0 -11 -5 -17.5t-15 -6.5h-42v96zM961 1326h6l54 -48v48h13v-96h-7l-55 51v-51h-11v96zM876 1326h23v-72l2 -6l5 -2l7 2l3 6v72h22v-72q0 -11 -5.5 -17.5t-15.5 -6.5h-21q-20 0 -20 23v73zM733 1024l782 -783h-70l-712 713v70zM733 883
l641 -642h-69l-572 573v69zM733 673v70l502 -502h-70zM1094 241h-70l-291 291v71zM761 268q-22 22 -26 52l77 -78q-30 4 -51 26zM938 156q0 -11 -5.5 -17.5t-15.5 -6.5h-21q-20 0 -20 23v73h23v-72l2 -6l5 -3l7 3l3 6v72h22v-72zM884 241l-151 150v70l221 -220h-70z
M1034 132h-7l-55 51v-51h-11v96h6l54 -48v48h13v-96zM1117 156q0 -24 -20 -24h-42v97l42 -1q20 0 20 -21v-51zM1192 213h-28v-28h19v-13h-19v-27h28v-13h-53v96h53v-15zM1269 213h-30v-28h21v-13h-21v-40h-23v96h53v-15zM1310 132h-24v96h24v-96zM1406 132h-6l-54 51v-51
h-11v96h6l52 -48v48h13v-96zM1483 213h-28v-28h19v-13h-19v-27h28v-13h-52v96h52v-15zM1568 156q0 -24 -20 -24h-42v97l41 -1q21 0 21 -21v-51zM1620 241h-35l-852 853v35q0 15 6 31l911 -913q-15 -6 -30 -6zM1691 277l-922 924q23 17 51 18l890 -891q-2 -28 -19 -51z
M1711 398l-820 818h69l751 -748v-70z" />
    <glyph glyph-name="uniEA0F" unicode="&#xea0f;" 
d="M1086 1313h-9v-68h9l6 3l2 6v50l-3 6zM1537 213h-9v-68h9l6 4l2 7v50l-2 5zM1086 213h-9v-68h9l6 4l2 7v50l-3 5zM1720 1339h-996q-48 0 -80 -32q-33 -34 -33 -78v-997q0 -47 33.5 -81t79.5 -34h996q45 0 79 34t34 81v997q0 45 -34 78q-31 32 -79 32zM1620 1216
q39 0 64 -25q27 -27 27 -62v-26l-117 113h26zM1711 1033v0v-70l-257 253h70zM1506 1326h42q20 0 20 -21v-51q0 -11 -5 -17.5t-15 -6.5h-42v96zM1431 1326h52v-13h-28v-27h19v-13h-19v-28h28v-15h-52v96zM1335 1326h6l52 -48v48h13v-96h-6l-54 51v-51h-11v96zM1384 1216
l327 -323v-71l-397 394h70zM1711 752v-73l-540 537h73l467 -464v0zM1711 609v0v-71l-680 678h69zM1286 1326h24v-96h-24v96zM1216 1328h53v-15h-30v-27h21v-13h-21v-41h-23v96zM1139 1326h53v-13h-28v-27h19v-13h-19v-28h28v-15h-53v96zM1055 1326h42q20 0 20 -21v-51
q0 -11 -5 -17.5t-15 -6.5h-42v96zM961 1326h6l54 -48v48h13v-96h-7l-55 51v-51h-11v96zM876 1326h23v-72l2 -6l5 -2l7 2l3 6v72h22v-72q0 -11 -5.5 -17.5t-15.5 -6.5h-21q-20 0 -20 23v73zM733 1024l782 -783h-70l-712 713v70zM733 883l641 -642h-69l-572 573v69zM733 673
v70l502 -502h-70zM1094 241h-70l-291 291v71zM761 268q-22 22 -26 52l77 -78q-30 4 -51 26zM938 156q0 -11 -5.5 -17.5t-15.5 -6.5h-21q-20 0 -20 23v73h23v-72l2 -6l5 -3l7 3l3 6v72h22v-72zM884 241l-151 150v70l221 -220h-70zM1034 132h-7l-55 51v-51h-11v96h6l54 -48v48
h13v-96zM1117 156q0 -24 -20 -24h-42v97l42 -1q20 0 20 -21v-51zM1192 213h-28v-28h19v-13h-19v-27h28v-13h-53v96h53v-15zM1269 213h-30v-28h21v-13h-21v-40h-23v96h53v-15zM1310 132h-24v96h24v-96zM1406 132h-6l-54 51v-51h-11v96h6l52 -48v48h13v-96zM1483 213h-28v-28
h19v-13h-19v-27h28v-13h-52v96h52v-15zM1568 156q0 -24 -20 -24h-42v97l41 -1q21 0 21 -21v-51zM1620 241h-35l-852 853v35q0 15 6 31l911 -913q-15 -6 -30 -6zM1691 277l-922 924q23 17 51 18l890 -891q-2 -28 -19 -51zM1711 398l-820 818h69l751 -748v-70zM1537 1313h-9
v-68h9l6 3l2 6v50l-2 6z" />
    <glyph glyph-name="uniEA10" unicode="&#xea10;" 
d="M1537 1313h-9v-68h9l6 3l2 6v50l-2 6zM1086 213h-9v-68h9l6 4l2 7v50l-3 5zM1086 1313h-9v-68h9l6 3l2 6v50l-3 6zM1537 213h-9v-68h9l6 4l2 7v50l-2 5zM1720 1339h-996q-48 0 -80 -32q-33 -34 -33 -78v-997q0 -47 33.5 -81t79.5 -34h996q45 0 79 34t34 81v997
q0 45 -34 78q-31 32 -79 32zM1620 1216q39 0 64 -25q27 -27 27 -62v-26l-117 113h26zM1711 1033v0v-70l-257 253h70zM1506 1326h42q20 0 20 -21v-51q0 -11 -5 -17.5t-15 -6.5h-42v96zM1431 1326h52v-13h-28v-27h19v-13h-19v-28h28v-15h-52v96zM1335 1326h6l52 -48v48h13v-96
h-6l-54 51v-51h-11v96zM1384 1216l327 -323v-71l-397 394h70zM1711 752v-73l-540 537h73l467 -464v0zM1711 609v0v-71l-680 678h69zM1286 1326h24v-96h-24v96zM1216 1328h53v-15h-30v-27h21v-13h-21v-41h-23v96zM1139 1326h53v-13h-28v-27h19v-13h-19v-28h28v-15h-53v96z
M1055 1326h42q20 0 20 -21v-51q0 -11 -5 -17.5t-15 -6.5h-42v96zM961 1326h6l54 -48v48h13v-96h-7l-55 51v-51h-11v96zM876 1326h23v-72l2 -6l5 -2l7 2l3 6v72h22v-72q0 -11 -5.5 -17.5t-15.5 -6.5h-21q-20 0 -20 23v73zM733 1024l782 -783h-70l-712 713v70zM733 883
l641 -642h-69l-572 573v69zM733 673v70l502 -502h-70zM1094 241h-70l-291 291v71zM761 268q-22 22 -26 52l77 -78q-30 4 -51 26zM938 156q0 -11 -5.5 -17.5t-15.5 -6.5h-21q-20 0 -20 23v73h23v-72l2 -6l5 -3l7 3l3 6v72h22v-72zM884 241l-151 150v70l221 -220h-70z
M1034 132h-7l-55 51v-51h-11v96h6l54 -48v48h13v-96zM1117 156q0 -24 -20 -24h-42v97l42 -1q20 0 20 -21v-51zM1192 213h-28v-28h19v-13h-19v-27h28v-13h-53v96h53v-15zM1269 213h-30v-28h21v-13h-21v-40h-23v96h53v-15zM1310 132h-24v96h24v-96zM1406 132h-6l-54 51v-51
h-11v96h6l52 -48v48h13v-96zM1483 213h-28v-28h19v-13h-19v-27h28v-13h-52v96h52v-15zM1568 156q0 -24 -20 -24h-42v97l41 -1q21 0 21 -21v-51zM1620 241h-35l-852 853v35q0 15 6 31l911 -913q-15 -6 -30 -6zM1691 277l-922 924q23 17 51 18l890 -891q-2 -28 -19 -51z
M1711 398l-820 818h69l751 -748v-70z" />
    <glyph glyph-name="uniEA11" unicode="&#xea11;" 
d="M1537 213h-9v-68h9l6 4l2 7v50l-2 5zM1720 1339h-996q-48 0 -80 -32q-33 -34 -33 -78v-997q0 -47 33.5 -81t79.5 -34h996q45 0 79 34t34 81v997q0 45 -34 78q-31 32 -79 32zM1620 1216q39 0 64 -25q27 -27 27 -62v-26l-117 113h26zM1711 1033v0v-70l-257 253h70z
M1506 1326h42q20 0 20 -21v-51q0 -11 -5 -17.5t-15 -6.5h-42v96zM1431 1326h52v-13h-28v-27h19v-13h-19v-28h28v-15h-52v96zM1335 1326h6l52 -48v48h13v-96h-6l-54 51v-51h-11v96zM1384 1216l327 -323v-71l-397 394h70zM1711 752v-73l-540 537h73l467 -464v0zM1711 609v0
v-71l-680 678h69zM1286 1326h24v-96h-24v96zM1216 1328h53v-15h-30v-27h21v-13h-21v-41h-23v96zM1139 1326h53v-13h-28v-27h19v-13h-19v-28h28v-15h-53v96zM1055 1326h42q20 0 20 -21v-51q0 -11 -5 -17.5t-15 -6.5h-42v96zM961 1326h6l54 -48v48h13v-96h-7l-55 51v-51h-11
v96zM876 1326h23v-72l2 -6l5 -2l7 2l3 6v72h22v-72q0 -11 -5.5 -17.5t-15.5 -6.5h-21q-20 0 -20 23v73zM733 1024l782 -783h-70l-712 713v70zM733 883l641 -642h-69l-572 573v69zM733 673v70l502 -502h-70zM1094 241h-70l-291 291v71zM761 268q-22 22 -26 52l77 -78
q-30 4 -51 26zM938 156q0 -11 -5.5 -17.5t-15.5 -6.5h-21q-20 0 -20 23v73h23v-72l2 -6l5 -3l7 3l3 6v72h22v-72zM884 241l-151 150v70l221 -220h-70zM1034 132h-7l-55 51v-51h-11v96h6l54 -48v48h13v-96zM1117 156q0 -24 -20 -24h-42v97l42 -1q20 0 20 -21v-51zM1192 213
h-28v-28h19v-13h-19v-27h28v-13h-53v96h53v-15zM1269 213h-30v-28h21v-13h-21v-40h-23v96h53v-15zM1310 132h-24v96h24v-96zM1406 132h-6l-54 51v-51h-11v96h6l52 -48v48h13v-96zM1483 213h-28v-28h19v-13h-19v-27h28v-13h-52v96h52v-15zM1568 156q0 -24 -20 -24h-42v97
l41 -1q21 0 21 -21v-51zM1620 241h-35l-852 853v35q0 15 6 31l911 -913q-15 -6 -30 -6zM1691 277l-922 924q23 17 51 18l890 -891q-2 -28 -19 -51zM1711 398l-820 818h69l751 -748v-70zM1086 1313h-9v-68h9l6 3l2 6v50l-3 6zM1086 213h-9v-68h9l6 4l2 7v50l-3 5zM1537 1313
h-9v-68h9l6 3l2 6v50l-2 6z" />
    <glyph glyph-name="uniEA12" unicode="&#xea12;" 
d="M1537 1313h-9v-68h9l6 3l2 6v50l-2 6zM1086 1313h-9v-68h9l6 3l2 6v50l-3 6zM1537 213h-9v-68h9l6 4l2 7v50l-2 5zM1086 213h-9v-68h9l6 4l2 7v50l-3 5zM1720 1339h-996q-48 0 -80 -32q-33 -34 -33 -78v-997q0 -47 33.5 -81t79.5 -34h996q45 0 79 34t34 81v997
q0 45 -34 78q-31 32 -79 32zM1620 1216q39 0 64 -25q27 -27 27 -62v-26l-117 113h26zM1711 1033v0v-70l-257 253h70zM1506 1326h42q20 0 20 -21v-51q0 -11 -5 -17.5t-15 -6.5h-42v96zM1431 1326h52v-13h-28v-27h19v-13h-19v-28h28v-15h-52v96zM1335 1326h6l52 -48v48h13v-96
h-6l-54 51v-51h-11v96zM1384 1216l327 -323v-71l-397 394h70zM1711 752v-73l-540 537h73l467 -464v0zM1711 609v0v-71l-680 678h69zM1286 1326h24v-96h-24v96zM1216 1328h53v-15h-30v-27h21v-13h-21v-41h-23v96zM1139 1326h53v-13h-28v-27h19v-13h-19v-28h28v-15h-53v96z
M1055 1326h42q20 0 20 -21v-51q0 -11 -5 -17.5t-15 -6.5h-42v96zM961 1326h6l54 -48v48h13v-96h-7l-55 51v-51h-11v96zM876 1326h23v-72l2 -6l5 -2l7 2l3 6v72h22v-72q0 -11 -5.5 -17.5t-15.5 -6.5h-21q-20 0 -20 23v73zM733 1024l782 -783h-70l-712 713v70zM733 883
l641 -642h-69l-572 573v69zM733 673v70l502 -502h-70zM1094 241h-70l-291 291v71zM761 268q-22 22 -26 52l77 -78q-30 4 -51 26zM938 156q0 -11 -5.5 -17.5t-15.5 -6.5h-21q-20 0 -20 23v73h23v-72l2 -6l5 -3l7 3l3 6v72h22v-72zM884 241l-151 150v70l221 -220h-70z
M1034 132h-7l-55 51v-51h-11v96h6l54 -48v48h13v-96zM1117 156q0 -24 -20 -24h-42v97l42 -1q20 0 20 -21v-51zM1192 213h-28v-28h19v-13h-19v-27h28v-13h-53v96h53v-15zM1269 213h-30v-28h21v-13h-21v-40h-23v96h53v-15zM1310 132h-24v96h24v-96zM1406 132h-6l-54 51v-51
h-11v96h6l52 -48v48h13v-96zM1483 213h-28v-28h19v-13h-19v-27h28v-13h-52v96h52v-15zM1568 156q0 -24 -20 -24h-42v97l41 -1q21 0 21 -21v-51zM1620 241h-35l-852 853v35q0 15 6 31l911 -913q-15 -6 -30 -6zM1691 277l-922 924q23 17 51 18l890 -891q-2 -28 -19 -51z
M1711 398l-820 818h69l751 -748v-70z" />
    <glyph glyph-name="uniEA13" unicode="&#xea13;" 
d="M1720 1339h-996q-48 0 -80 -32q-33 -34 -33 -78v-997q0 -47 33.5 -81t79.5 -34h996q45 0 79 34t34 81v997q0 45 -34 78q-31 32 -79 32zM1620 1216q39 0 64 -25q27 -27 27 -62v-26l-117 113h26zM1711 1033v0v-70l-257 253h70zM1506 1326h42q20 0 20 -21v-51
q0 -11 -5 -17.5t-15 -6.5h-42v96zM1431 1326h52v-13h-28v-27h19v-13h-19v-28h28v-15h-52v96zM1335 1326h6l52 -48v48h13v-96h-6l-54 51v-51h-11v96zM1384 1216l327 -323v-71l-397 394h70zM1711 752v-73l-540 537h73l467 -464v0zM1711 609v0v-71l-680 678h69zM1286 1326h24
v-96h-24v96zM1216 1328h53v-15h-30v-27h21v-13h-21v-41h-23v96zM1139 1326h53v-13h-28v-27h19v-13h-19v-28h28v-15h-53v96zM1055 1326h42q20 0 20 -21v-51q0 -11 -5 -17.5t-15 -6.5h-42v96zM961 1326h6l54 -48v48h13v-96h-7l-55 51v-51h-11v96zM876 1326h23v-72l2 -6l5 -2
l7 2l3 6v72h22v-72q0 -11 -5.5 -17.5t-15.5 -6.5h-21q-20 0 -20 23v73zM733 1024l782 -783h-70l-712 713v70zM733 883l641 -642h-69l-572 573v69zM733 673v70l502 -502h-70zM1094 241h-70l-291 291v71zM761 268q-22 22 -26 52l77 -78q-30 4 -51 26zM938 156
q0 -11 -5.5 -17.5t-15.5 -6.5h-21q-20 0 -20 23v73h23v-72l2 -6l5 -3l7 3l3 6v72h22v-72zM884 241l-151 150v70l221 -220h-70zM1034 132h-7l-55 51v-51h-11v96h6l54 -48v48h13v-96zM1117 156q0 -24 -20 -24h-42v97l42 -1q20 0 20 -21v-51zM1192 213h-28v-28h19v-13h-19v-27
h28v-13h-53v96h53v-15zM1269 213h-30v-28h21v-13h-21v-40h-23v96h53v-15zM1310 132h-24v96h24v-96zM1406 132h-6l-54 51v-51h-11v96h6l52 -48v48h13v-96zM1483 213h-28v-28h19v-13h-19v-27h28v-13h-52v96h52v-15zM1568 156q0 -24 -20 -24h-42v97l41 -1q21 0 21 -21v-51z
M1620 241h-35l-852 853v35q0 15 6 31l911 -913q-15 -6 -30 -6zM1691 277l-922 924q23 17 51 18l890 -891q-2 -28 -19 -51zM1711 398l-820 818h69l751 -748v-70zM1537 1313h-9v-68h9l6 3l2 6v50l-2 6zM1086 1313h-9v-68h9l6 3l2 6v50l-3 6zM1537 213h-9v-68h9l6 4l2 7v50
l-2 5zM1086 213h-9v-68h9l6 4l2 7v50l-3 5z" />
    <glyph glyph-name="uniEA14" unicode="&#xea14;" 
d="M1086 213h-9v-68h9l6 4l2 7v50l-3 5zM1537 213h-9v-68h9l6 4l2 7v50l-2 5zM1537 1313h-9v-68h9l6 3l2 6v50l-2 6zM1086 1313h-9v-68h9l6 3l2 6v50l-3 6zM1720 1339h-996q-48 0 -80 -32q-33 -34 -33 -78v-997q0 -47 33.5 -81t79.5 -34h996q45 0 79 34t34 81v997
q0 45 -34 78q-31 32 -79 32zM1620 1216q39 0 64 -25q27 -27 27 -62v-26l-117 113h26zM1711 1033v0v-70l-257 253h70zM1506 1326h42q20 0 20 -21v-51q0 -11 -5 -17.5t-15 -6.5h-42v96zM1431 1326h52v-13h-28v-27h19v-13h-19v-28h28v-15h-52v96zM1335 1326h6l52 -48v48h13v-96
h-6l-54 51v-51h-11v96zM1384 1216l327 -323v-71l-397 394h70zM1711 752v-73l-540 537h73l467 -464v0zM1711 609v0v-71l-680 678h69zM1286 1326h24v-96h-24v96zM1216 1328h53v-15h-30v-27h21v-13h-21v-41h-23v96zM1139 1326h53v-13h-28v-27h19v-13h-19v-28h28v-15h-53v96z
M1055 1326h42q20 0 20 -21v-51q0 -11 -5 -17.5t-15 -6.5h-42v96zM961 1326h6l54 -48v48h13v-96h-7l-55 51v-51h-11v96zM876 1326h23v-72l2 -6l5 -2l7 2l3 6v72h22v-72q0 -11 -5.5 -17.5t-15.5 -6.5h-21q-20 0 -20 23v73zM733 1024l782 -783h-70l-712 713v70zM733 883
l641 -642h-69l-572 573v69zM733 673v70l502 -502h-70zM1094 241h-70l-291 291v71zM761 268q-22 22 -26 52l77 -78q-30 4 -51 26zM938 156q0 -11 -5.5 -17.5t-15.5 -6.5h-21q-20 0 -20 23v73h23v-72l2 -6l5 -3l7 3l3 6v72h22v-72zM884 241l-151 150v70l221 -220h-70z
M1034 132h-7l-55 51v-51h-11v96h6l54 -48v48h13v-96zM1117 156q0 -24 -20 -24h-42v97l42 -1q20 0 20 -21v-51zM1192 213h-28v-28h19v-13h-19v-27h28v-13h-53v96h53v-15zM1269 213h-30v-28h21v-13h-21v-40h-23v96h53v-15zM1310 132h-24v96h24v-96zM1406 132h-6l-54 51v-51
h-11v96h6l52 -48v48h13v-96zM1483 213h-28v-28h19v-13h-19v-27h28v-13h-52v96h52v-15zM1568 156q0 -24 -20 -24h-42v97l41 -1q21 0 21 -21v-51zM1620 241h-35l-852 853v35q0 15 6 31l911 -913q-15 -6 -30 -6zM1691 277l-922 924q23 17 51 18l890 -891q-2 -28 -19 -51z
M1711 398l-820 818h69l751 -748v-70z" />
    <glyph glyph-name="uniEA15" unicode="&#xea15;" 
d="M1086 1313h-9v-68h9l6 3l2 6v50l-3 6zM1720 1339h-996q-48 0 -80 -32q-33 -34 -33 -78v-997q0 -47 33.5 -81t79.5 -34h996q45 0 79 34t34 81v997q0 45 -34 78q-31 32 -79 32zM1620 1216q39 0 64 -25q27 -27 27 -62v-26l-117 113h26zM1711 1033v0v-70l-257 253h70z
M1506 1326h42q20 0 20 -21v-51q0 -11 -5 -17.5t-15 -6.5h-42v96zM1431 1326h52v-13h-28v-27h19v-13h-19v-28h28v-15h-52v96zM1335 1326h6l52 -48v48h13v-96h-6l-54 51v-51h-11v96zM1384 1216l327 -323v-71l-397 394h70zM1711 752v-73l-540 537h73l467 -464v0zM1711 609v0
v-71l-680 678h69zM1286 1326h24v-96h-24v96zM1216 1328h53v-15h-30v-27h21v-13h-21v-41h-23v96zM1139 1326h53v-13h-28v-27h19v-13h-19v-28h28v-15h-53v96zM1055 1326h42q20 0 20 -21v-51q0 -11 -5 -17.5t-15 -6.5h-42v96zM961 1326h6l54 -48v48h13v-96h-7l-55 51v-51h-11
v96zM876 1326h23v-72l2 -6l5 -2l7 2l3 6v72h22v-72q0 -11 -5.5 -17.5t-15.5 -6.5h-21q-20 0 -20 23v73zM733 1024l782 -783h-70l-712 713v70zM733 883l641 -642h-69l-572 573v69zM733 673v70l502 -502h-70zM1094 241h-70l-291 291v71zM761 268q-22 22 -26 52l77 -78
q-30 4 -51 26zM938 156q0 -11 -5.5 -17.5t-15.5 -6.5h-21q-20 0 -20 23v73h23v-72l2 -6l5 -3l7 3l3 6v72h22v-72zM884 241l-151 150v70l221 -220h-70zM1034 132h-7l-55 51v-51h-11v96h6l54 -48v48h13v-96zM1117 156q0 -24 -20 -24h-42v97l42 -1q20 0 20 -21v-51zM1192 213
h-28v-28h19v-13h-19v-27h28v-13h-53v96h53v-15zM1269 213h-30v-28h21v-13h-21v-40h-23v96h53v-15zM1310 132h-24v96h24v-96zM1406 132h-6l-54 51v-51h-11v96h6l52 -48v48h13v-96zM1483 213h-28v-28h19v-13h-19v-27h28v-13h-52v96h52v-15zM1568 156q0 -24 -20 -24h-42v97
l41 -1q21 0 21 -21v-51zM1620 241h-35l-852 853v35q0 15 6 31l911 -913q-15 -6 -30 -6zM1691 277l-922 924q23 17 51 18l890 -891q-2 -28 -19 -51zM1711 398l-820 818h69l751 -748v-70zM1086 213h-9v-68h9l6 4l2 7v50l-3 5zM1537 213h-9v-68h9l6 4l2 7v50l-2 5zM1537 1313
h-9v-68h9l6 3l2 6v50l-2 6z" />
    <glyph glyph-name="uniEA16" unicode="&#xea16;" 
d="M1720 1339h-996q-48 0 -80 -32q-33 -34 -33 -78v-997q0 -47 33.5 -81t79.5 -34h996q45 0 79 34t34 81v997q0 45 -34 78q-31 32 -79 32zM1620 1216q39 0 64 -25q27 -27 27 -62v-26l-117 113h26zM1711 1033v0v-70l-257 253h70zM1506 1326h42q20 0 20 -21v-51
q0 -11 -5 -17.5t-15 -6.5h-42v96zM1431 1326h52v-13h-28v-27h19v-13h-19v-28h28v-15h-52v96zM1335 1326h6l52 -48v48h13v-96h-6l-54 51v-51h-11v96zM1384 1216l327 -323v-71l-397 394h70zM1711 752v-73l-540 537h73l467 -464v0zM1711 609v0v-71l-680 678h69zM1286 1326h24
v-96h-24v96zM1216 1328h53v-15h-30v-27h21v-13h-21v-41h-23v96zM1139 1326h53v-13h-28v-27h19v-13h-19v-28h28v-15h-53v96zM1055 1326h42q20 0 20 -21v-51q0 -11 -5 -17.5t-15 -6.5h-42v96zM961 1326h6l54 -48v48h13v-96h-7l-55 51v-51h-11v96zM876 1326h23v-72l2 -6l5 -2
l7 2l3 6v72h22v-72q0 -11 -5.5 -17.5t-15.5 -6.5h-21q-20 0 -20 23v73zM733 1024l782 -783h-70l-712 713v70zM733 883l641 -642h-69l-572 573v69zM733 673v70l502 -502h-70zM1094 241h-70l-291 291v71zM761 268q-22 22 -26 52l77 -78q-30 4 -51 26zM938 156
q0 -11 -5.5 -17.5t-15.5 -6.5h-21q-20 0 -20 23v73h23v-72l2 -6l5 -3l7 3l3 6v72h22v-72zM884 241l-151 150v70l221 -220h-70zM1034 132h-7l-55 51v-51h-11v96h6l54 -48v48h13v-96zM1117 156q0 -24 -20 -24h-42v97l42 -1q20 0 20 -21v-51zM1192 213h-28v-28h19v-13h-19v-27
h28v-13h-53v96h53v-15zM1269 213h-30v-28h21v-13h-21v-40h-23v96h53v-15zM1310 132h-24v96h24v-96zM1406 132h-6l-54 51v-51h-11v96h6l52 -48v48h13v-96zM1483 213h-28v-28h19v-13h-19v-27h28v-13h-52v96h52v-15zM1568 156q0 -24 -20 -24h-42v97l41 -1q21 0 21 -21v-51z
M1620 241h-35l-852 853v35q0 15 6 31l911 -913q-15 -6 -30 -6zM1691 277l-922 924q23 17 51 18l890 -891q-2 -28 -19 -51zM1711 398l-820 818h69l751 -748v-70zM1537 1313h-9v-68h9l6 3l2 6v50l-2 6zM1086 213h-9v-68h9l6 4l2 7v50l-3 5zM1537 213h-9v-68h9l6 4l2 7v50l-2 5
zM1086 1313h-9v-68h9l6 3l2 6v50l-3 6z" />
    <glyph glyph-name="uniEA17" unicode="&#xea17;" 
d="M1720 1339h-996q-48 0 -80 -32q-33 -34 -33 -78v-997q0 -47 33.5 -81t79.5 -34h996q45 0 79 34t34 81v997q0 45 -34 78q-31 32 -79 32zM1620 1216q39 0 64 -25q27 -27 27 -62v-26l-117 113h26zM1711 1033v0v-70l-257 253h70zM1506 1326h42q20 0 20 -21v-51
q0 -11 -5 -17.5t-15 -6.5h-42v96zM1431 1326h52v-13h-28v-27h19v-13h-19v-28h28v-15h-52v96zM1335 1326h6l52 -48v48h13v-96h-6l-54 51v-51h-11v96zM1384 1216l327 -323v-71l-397 394h70zM1711 752v-73l-540 537h73l467 -464v0zM1711 609v0v-71l-680 678h69zM1286 1326h24
v-96h-24v96zM1216 1328h53v-15h-30v-27h21v-13h-21v-41h-23v96zM1139 1326h53v-13h-28v-27h19v-13h-19v-28h28v-15h-53v96zM1055 1326h42q20 0 20 -21v-51q0 -11 -5 -17.5t-15 -6.5h-42v96zM961 1326h6l54 -48v48h13v-96h-7l-55 51v-51h-11v96zM876 1326h23v-72l2 -6l5 -2
l7 2l3 6v72h22v-72q0 -11 -5.5 -17.5t-15.5 -6.5h-21q-20 0 -20 23v73zM733 1024l782 -783h-70l-712 713v70zM733 883l641 -642h-69l-572 573v69zM733 673v70l502 -502h-70zM1094 241h-70l-291 291v71zM761 268q-22 22 -26 52l77 -78q-30 4 -51 26zM938 156
q0 -11 -5.5 -17.5t-15.5 -6.5h-21q-20 0 -20 23v73h23v-72l2 -6l5 -3l7 3l3 6v72h22v-72zM884 241l-151 150v70l221 -220h-70zM1034 132h-7l-55 51v-51h-11v96h6l54 -48v48h13v-96zM1117 156q0 -24 -20 -24h-42v97l42 -1q20 0 20 -21v-51zM1192 213h-28v-28h19v-13h-19v-27
h28v-13h-53v96h53v-15zM1269 213h-30v-28h21v-13h-21v-40h-23v96h53v-15zM1310 132h-24v96h24v-96zM1406 132h-6l-54 51v-51h-11v96h6l52 -48v48h13v-96zM1483 213h-28v-28h19v-13h-19v-27h28v-13h-52v96h52v-15zM1568 156q0 -24 -20 -24h-42v97l41 -1q21 0 21 -21v-51z
M1620 241h-35l-852 853v35q0 15 6 31l911 -913q-15 -6 -30 -6zM1691 277l-922 924q23 17 51 18l890 -891q-2 -28 -19 -51zM1711 398l-820 818h69l751 -748v-70zM1537 213h-9v-68h9l6 4l2 7v50l-2 5zM1086 213h-9v-68h9l6 4l2 7v50l-3 5zM1537 1313h-9v-68h9l6 3l2 6v50l-2 6
zM1086 1313h-9v-68h9l6 3l2 6v50l-3 6z" />
    <glyph glyph-name="uniEA18" unicode="&#xea18;" 
d="M1537 213h-9v-68h9l6 4l2 7v50l-2 5zM1086 213h-9v-68h9l6 4l2 7v50l-3 5zM1720 1339h-996q-48 0 -80 -32q-33 -34 -33 -78v-997q0 -47 33.5 -81t79.5 -34h996q45 0 79 34t34 81v997q0 45 -34 78q-31 32 -79 32zM1620 1216q39 0 64 -25q27 -27 27 -62v-26l-117 113h26z
M1711 1033v0v-70l-257 253h70zM1506 1326h42q20 0 20 -21v-51q0 -11 -5 -17.5t-15 -6.5h-42v96zM1431 1326h52v-13h-28v-27h19v-13h-19v-28h28v-15h-52v96zM1335 1326h6l52 -48v48h13v-96h-6l-54 51v-51h-11v96zM1384 1216l327 -323v-71l-397 394h70zM1711 752v-73l-540 537
h73l467 -464v0zM1711 609v0v-71l-680 678h69zM1286 1326h24v-96h-24v96zM1216 1328h53v-15h-30v-27h21v-13h-21v-41h-23v96zM1139 1326h53v-13h-28v-27h19v-13h-19v-28h28v-15h-53v96zM1055 1326h42q20 0 20 -21v-51q0 -11 -5 -17.5t-15 -6.5h-42v96zM961 1326h6l54 -48v48
h13v-96h-7l-55 51v-51h-11v96zM876 1326h23v-72l2 -6l5 -2l7 2l3 6v72h22v-72q0 -11 -5.5 -17.5t-15.5 -6.5h-21q-20 0 -20 23v73zM733 1024l782 -783h-70l-712 713v70zM733 883l641 -642h-69l-572 573v69zM733 673v70l502 -502h-70zM1094 241h-70l-291 291v71zM761 268
q-22 22 -26 52l77 -78q-30 4 -51 26zM938 156q0 -11 -5.5 -17.5t-15.5 -6.5h-21q-20 0 -20 23v73h23v-72l2 -6l5 -3l7 3l3 6v72h22v-72zM884 241l-151 150v70l221 -220h-70zM1034 132h-7l-55 51v-51h-11v96h6l54 -48v48h13v-96zM1117 156q0 -24 -20 -24h-42v97l42 -1
q20 0 20 -21v-51zM1192 213h-28v-28h19v-13h-19v-27h28v-13h-53v96h53v-15zM1269 213h-30v-28h21v-13h-21v-40h-23v96h53v-15zM1310 132h-24v96h24v-96zM1406 132h-6l-54 51v-51h-11v96h6l52 -48v48h13v-96zM1483 213h-28v-28h19v-13h-19v-27h28v-13h-52v96h52v-15z
M1568 156q0 -24 -20 -24h-42v97l41 -1q21 0 21 -21v-51zM1620 241h-35l-852 853v35q0 15 6 31l911 -913q-15 -6 -30 -6zM1691 277l-922 924q23 17 51 18l890 -891q-2 -28 -19 -51zM1711 398l-820 818h69l751 -748v-70zM1086 1313h-9v-68h9l6 3l2 6v50l-3 6zM1537 1313h-9
v-68h9l6 3l2 6v50l-2 6z" />
    <glyph glyph-name="uniEA19" unicode="&#xea19;" 
d="M1537 1313h-9v-68h9l6 3l2 6v50l-2 6zM1086 213h-9v-68h9l6 4l2 7v50l-3 5zM1086 1313h-9v-68h9l6 3l2 6v50l-3 6zM1537 213h-9v-68h9l6 4l2 7v50l-2 5zM1720 1339h-996q-48 0 -80 -32q-33 -34 -33 -78v-997q0 -47 33.5 -81t79.5 -34h996q45 0 79 34t34 81v997
q0 45 -34 78q-31 32 -79 32zM1620 1216q39 0 64 -25q27 -27 27 -62v-26l-117 113h26zM1711 1033v0v-70l-257 253h70zM1506 1326h42q20 0 20 -21v-51q0 -11 -5 -17.5t-15 -6.5h-42v96zM1431 1326h52v-13h-28v-27h19v-13h-19v-28h28v-15h-52v96zM1335 1326h6l52 -48v48h13v-96
h-6l-54 51v-51h-11v96zM1384 1216l327 -323v-71l-397 394h70zM1711 752v-73l-540 537h73l467 -464v0zM1711 609v0v-71l-680 678h69zM1286 1326h24v-96h-24v96zM1216 1328h53v-15h-30v-27h21v-13h-21v-41h-23v96zM1139 1326h53v-13h-28v-27h19v-13h-19v-28h28v-15h-53v96z
M1055 1326h42q20 0 20 -21v-51q0 -11 -5 -17.5t-15 -6.5h-42v96zM961 1326h6l54 -48v48h13v-96h-7l-55 51v-51h-11v96zM876 1326h23v-72l2 -6l5 -2l7 2l3 6v72h22v-72q0 -11 -5.5 -17.5t-15.5 -6.5h-21q-20 0 -20 23v73zM733 1024l782 -783h-70l-712 713v70zM733 883
l641 -642h-69l-572 573v69zM733 673v70l502 -502h-70zM1094 241h-70l-291 291v71zM761 268q-22 22 -26 52l77 -78q-30 4 -51 26zM938 156q0 -11 -5.5 -17.5t-15.5 -6.5h-21q-20 0 -20 23v73h23v-72l2 -6l5 -3l7 3l3 6v72h22v-72zM884 241l-151 150v70l221 -220h-70z
M1034 132h-7l-55 51v-51h-11v96h6l54 -48v48h13v-96zM1117 156q0 -24 -20 -24h-42v97l42 -1q20 0 20 -21v-51zM1192 213h-28v-28h19v-13h-19v-27h28v-13h-53v96h53v-15zM1269 213h-30v-28h21v-13h-21v-40h-23v96h53v-15zM1310 132h-24v96h24v-96zM1406 132h-6l-54 51v-51
h-11v96h6l52 -48v48h13v-96zM1483 213h-28v-28h19v-13h-19v-27h28v-13h-52v96h52v-15zM1568 156q0 -24 -20 -24h-42v97l41 -1q21 0 21 -21v-51zM1620 241h-35l-852 853v35q0 15 6 31l911 -913q-15 -6 -30 -6zM1691 277l-922 924q23 17 51 18l890 -891q-2 -28 -19 -51z
M1711 398l-820 818h69l751 -748v-70z" />
    <glyph glyph-name="uniEA1A" unicode="&#xea1a;" 
d="M1086 1313h-9v-68h9l6 3l2 6v50l-3 6zM1537 213h-9v-68h9l6 4l2 7v50l-2 5zM1537 1313h-9v-68h9l6 3l2 6v50l-2 6zM1086 213h-9v-68h9l6 4l2 7v50l-3 5zM1720 1339h-996q-48 0 -80 -32q-33 -34 -33 -78v-997q0 -47 33.5 -81t79.5 -34h996q45 0 79 34t34 81v997
q0 45 -34 78q-31 32 -79 32zM1620 1216q39 0 64 -25q27 -27 27 -62v-26l-117 113h26zM1711 1033v0v-70l-257 253h70zM1506 1326h42q20 0 20 -21v-51q0 -11 -5 -17.5t-15 -6.5h-42v96zM1431 1326h52v-13h-28v-27h19v-13h-19v-28h28v-15h-52v96zM1335 1326h6l52 -48v48h13v-96
h-6l-54 51v-51h-11v96zM1384 1216l327 -323v-71l-397 394h70zM1711 752v-73l-540 537h73l467 -464v0zM1711 609v0v-71l-680 678h69zM1286 1326h24v-96h-24v96zM1216 1328h53v-15h-30v-27h21v-13h-21v-41h-23v96zM1139 1326h53v-13h-28v-27h19v-13h-19v-28h28v-15h-53v96z
M1055 1326h42q20 0 20 -21v-51q0 -11 -5 -17.5t-15 -6.5h-42v96zM961 1326h6l54 -48v48h13v-96h-7l-55 51v-51h-11v96zM876 1326h23v-72l2 -6l5 -2l7 2l3 6v72h22v-72q0 -11 -5.5 -17.5t-15.5 -6.5h-21q-20 0 -20 23v73zM733 1024l782 -783h-70l-712 713v70zM733 883
l641 -642h-69l-572 573v69zM733 673v70l502 -502h-70zM1094 241h-70l-291 291v71zM761 268q-22 22 -26 52l77 -78q-30 4 -51 26zM938 156q0 -11 -5.5 -17.5t-15.5 -6.5h-21q-20 0 -20 23v73h23v-72l2 -6l5 -3l7 3l3 6v72h22v-72zM884 241l-151 150v70l221 -220h-70z
M1034 132h-7l-55 51v-51h-11v96h6l54 -48v48h13v-96zM1117 156q0 -24 -20 -24h-42v97l42 -1q20 0 20 -21v-51zM1192 213h-28v-28h19v-13h-19v-27h28v-13h-53v96h53v-15zM1269 213h-30v-28h21v-13h-21v-40h-23v96h53v-15zM1310 132h-24v96h24v-96zM1406 132h-6l-54 51v-51
h-11v96h6l52 -48v48h13v-96zM1483 213h-28v-28h19v-13h-19v-27h28v-13h-52v96h52v-15zM1568 156q0 -24 -20 -24h-42v97l41 -1q21 0 21 -21v-51zM1620 241h-35l-852 853v35q0 15 6 31l911 -913q-15 -6 -30 -6zM1691 277l-922 924q23 17 51 18l890 -891q-2 -28 -19 -51z
M1711 398l-820 818h69l751 -748v-70z" />
    <glyph glyph-name="uniEA1B" unicode="&#xea1b;" 
d="M1086 213h-9v-68h9l6 4l2 7v50l-3 5zM1720 1339h-996q-48 0 -80 -32q-33 -34 -33 -78v-997q0 -47 33.5 -81t79.5 -34h996q45 0 79 34t34 81v997q0 45 -34 78q-31 32 -79 32zM1620 1216q39 0 64 -25q27 -27 27 -62v-26l-117 113h26zM1711 1033v0v-70l-257 253h70z
M1506 1326h42q20 0 20 -21v-51q0 -11 -5 -17.5t-15 -6.5h-42v96zM1431 1326h52v-13h-28v-27h19v-13h-19v-28h28v-15h-52v96zM1335 1326h6l52 -48v48h13v-96h-6l-54 51v-51h-11v96zM1384 1216l327 -323v-71l-397 394h70zM1711 752v-73l-540 537h73l467 -464v0zM1711 609v0
v-71l-680 678h69zM1286 1326h24v-96h-24v96zM1216 1328h53v-15h-30v-27h21v-13h-21v-41h-23v96zM1139 1326h53v-13h-28v-27h19v-13h-19v-28h28v-15h-53v96zM1055 1326h42q20 0 20 -21v-51q0 -11 -5 -17.5t-15 -6.5h-42v96zM961 1326h6l54 -48v48h13v-96h-7l-55 51v-51h-11
v96zM876 1326h23v-72l2 -6l5 -2l7 2l3 6v72h22v-72q0 -11 -5.5 -17.5t-15.5 -6.5h-21q-20 0 -20 23v73zM733 1024l782 -783h-70l-712 713v70zM733 883l641 -642h-69l-572 573v69zM733 673v70l502 -502h-70zM1094 241h-70l-291 291v71zM761 268q-22 22 -26 52l77 -78
q-30 4 -51 26zM938 156q0 -11 -5.5 -17.5t-15.5 -6.5h-21q-20 0 -20 23v73h23v-72l2 -6l5 -3l7 3l3 6v72h22v-72zM884 241l-151 150v70l221 -220h-70zM1034 132h-7l-55 51v-51h-11v96h6l54 -48v48h13v-96zM1117 156q0 -24 -20 -24h-42v97l42 -1q20 0 20 -21v-51zM1192 213
h-28v-28h19v-13h-19v-27h28v-13h-53v96h53v-15zM1269 213h-30v-28h21v-13h-21v-40h-23v96h53v-15zM1310 132h-24v96h24v-96zM1406 132h-6l-54 51v-51h-11v96h6l52 -48v48h13v-96zM1483 213h-28v-28h19v-13h-19v-27h28v-13h-52v96h52v-15zM1568 156q0 -24 -20 -24h-42v97
l41 -1q21 0 21 -21v-51zM1620 241h-35l-852 853v35q0 15 6 31l911 -913q-15 -6 -30 -6zM1691 277l-922 924q23 17 51 18l890 -891q-2 -28 -19 -51zM1711 398l-820 818h69l751 -748v-70zM1537 213h-9v-68h9l6 4l2 7v50l-2 5zM1537 1313h-9v-68h9l6 3l2 6v50l-2 6zM1086 1313
h-9v-68h9l6 3l2 6v50l-3 6z" />
    <glyph glyph-name="uniEA1C" unicode="&#xea1c;" 
d="M1086 213h-9v-68h9l6 4l2 7v50l-3 5zM1720 1339h-996q-48 0 -80 -32q-33 -34 -33 -78v-997q0 -47 33.5 -81t79.5 -34h996q45 0 79 34t34 81v997q0 45 -34 78q-31 32 -79 32zM1620 1216q39 0 64 -25q27 -27 27 -62v-26l-117 113h26zM1711 1033v0v-70l-257 253h70z
M1506 1326h42q20 0 20 -21v-51q0 -11 -5 -17.5t-15 -6.5h-42v96zM1431 1326h52v-13h-28v-27h19v-13h-19v-28h28v-15h-52v96zM1335 1326h6l52 -48v48h13v-96h-6l-54 51v-51h-11v96zM1384 1216l327 -323v-71l-397 394h70zM1711 752v-73l-540 537h73l467 -464v0zM1711 609v0
v-71l-680 678h69zM1286 1326h24v-96h-24v96zM1216 1328h53v-15h-30v-27h21v-13h-21v-41h-23v96zM1139 1326h53v-13h-28v-27h19v-13h-19v-28h28v-15h-53v96zM1055 1326h42q20 0 20 -21v-51q0 -11 -5 -17.5t-15 -6.5h-42v96zM961 1326h6l54 -48v48h13v-96h-7l-55 51v-51h-11
v96zM876 1326h23v-72l2 -6l5 -2l7 2l3 6v72h22v-72q0 -11 -5.5 -17.5t-15.5 -6.5h-21q-20 0 -20 23v73zM733 1024l782 -783h-70l-712 713v70zM733 883l641 -642h-69l-572 573v69zM733 673v70l502 -502h-70zM1094 241h-70l-291 291v71zM761 268q-22 22 -26 52l77 -78
q-30 4 -51 26zM938 156q0 -11 -5.5 -17.5t-15.5 -6.5h-21q-20 0 -20 23v73h23v-72l2 -6l5 -3l7 3l3 6v72h22v-72zM884 241l-151 150v70l221 -220h-70zM1034 132h-7l-55 51v-51h-11v96h6l54 -48v48h13v-96zM1117 156q0 -24 -20 -24h-42v97l42 -1q20 0 20 -21v-51zM1192 213
h-28v-28h19v-13h-19v-27h28v-13h-53v96h53v-15zM1269 213h-30v-28h21v-13h-21v-40h-23v96h53v-15zM1310 132h-24v96h24v-96zM1406 132h-6l-54 51v-51h-11v96h6l52 -48v48h13v-96zM1483 213h-28v-28h19v-13h-19v-27h28v-13h-52v96h52v-15zM1568 156q0 -24 -20 -24h-42v97
l41 -1q21 0 21 -21v-51zM1620 241h-35l-852 853v35q0 15 6 31l911 -913q-15 -6 -30 -6zM1691 277l-922 924q23 17 51 18l890 -891q-2 -28 -19 -51zM1711 398l-820 818h69l751 -748v-70zM1537 1313h-9v-68h9l6 3l2 6v50l-2 6zM1537 213h-9v-68h9l6 4l2 7v50l-2 5zM1086 1313
h-9v-68h9l6 3l2 6v50l-3 6z" />
    <glyph glyph-name="uniEA1D" unicode="&#xea1d;" 
d="M1086 213h-9v-68h9l6 4l2 7v50l-3 5zM1537 213h-9v-68h9l6 4l2 7v50l-2 5zM1086 1313h-9v-68h9l6 3l2 6v50l-3 6zM1537 1313h-9v-68h9l6 3l2 6v50l-2 6zM1720 1339h-996q-48 0 -80 -32q-33 -34 -33 -78v-997q0 -47 33.5 -81t79.5 -34h996q45 0 79 34t34 81v997
q0 45 -34 78q-31 32 -79 32zM1620 1216q39 0 64 -25q27 -27 27 -62v-26l-117 113h26zM1711 1033v0v-70l-257 253h70zM1506 1326h42q20 0 20 -21v-51q0 -11 -5 -17.5t-15 -6.5h-42v96zM1431 1326h52v-13h-28v-27h19v-13h-19v-28h28v-15h-52v96zM1335 1326h6l52 -48v48h13v-96
h-6l-54 51v-51h-11v96zM1384 1216l327 -323v-71l-397 394h70zM1711 752v-73l-540 537h73l467 -464v0zM1711 609v0v-71l-680 678h69zM1286 1326h24v-96h-24v96zM1216 1328h53v-15h-30v-27h21v-13h-21v-41h-23v96zM1139 1326h53v-13h-28v-27h19v-13h-19v-28h28v-15h-53v96z
M1055 1326h42q20 0 20 -21v-51q0 -11 -5 -17.5t-15 -6.5h-42v96zM961 1326h6l54 -48v48h13v-96h-7l-55 51v-51h-11v96zM876 1326h23v-72l2 -6l5 -2l7 2l3 6v72h22v-72q0 -11 -5.5 -17.5t-15.5 -6.5h-21q-20 0 -20 23v73zM733 1024l782 -783h-70l-712 713v70zM733 883
l641 -642h-69l-572 573v69zM733 673v70l502 -502h-70zM1094 241h-70l-291 291v71zM761 268q-22 22 -26 52l77 -78q-30 4 -51 26zM938 156q0 -11 -5.5 -17.5t-15.5 -6.5h-21q-20 0 -20 23v73h23v-72l2 -6l5 -3l7 3l3 6v72h22v-72zM884 241l-151 150v70l221 -220h-70z
M1034 132h-7l-55 51v-51h-11v96h6l54 -48v48h13v-96zM1117 156q0 -24 -20 -24h-42v97l42 -1q20 0 20 -21v-51zM1192 213h-28v-28h19v-13h-19v-27h28v-13h-53v96h53v-15zM1269 213h-30v-28h21v-13h-21v-40h-23v96h53v-15zM1310 132h-24v96h24v-96zM1406 132h-6l-54 51v-51
h-11v96h6l52 -48v48h13v-96zM1483 213h-28v-28h19v-13h-19v-27h28v-13h-52v96h52v-15zM1568 156q0 -24 -20 -24h-42v97l41 -1q21 0 21 -21v-51zM1620 241h-35l-852 853v35q0 15 6 31l911 -913q-15 -6 -30 -6zM1691 277l-922 924q23 17 51 18l890 -891q-2 -28 -19 -51z
M1711 398l-820 818h69l751 -748v-70z" />
    <glyph glyph-name="uniEA1E" unicode="&#xea1e;" 
d="M1720 1339h-996q-48 0 -80 -32q-33 -34 -33 -78v-997q0 -47 33.5 -81t79.5 -34h996q45 0 79 34t34 81v997q0 45 -34 78q-31 32 -79 32zM1620 1216q39 0 64 -25q27 -27 27 -62v-26l-117 113h26zM1711 1033v0v-70l-257 253h70zM1506 1326h42q20 0 20 -21v-51
q0 -11 -5 -17.5t-15 -6.5h-42v96zM1431 1326h52v-13h-28v-27h19v-13h-19v-28h28v-15h-52v96zM1335 1326h6l52 -48v48h13v-96h-6l-54 51v-51h-11v96zM1384 1216l327 -323v-71l-397 394h70zM1711 752v-73l-540 537h73l467 -464v0zM1711 609v0v-71l-680 678h69zM1286 1326h24
v-96h-24v96zM1216 1328h53v-15h-30v-27h21v-13h-21v-41h-23v96zM1139 1326h53v-13h-28v-27h19v-13h-19v-28h28v-15h-53v96zM1055 1326h42q20 0 20 -21v-51q0 -11 -5 -17.5t-15 -6.5h-42v96zM961 1326h6l54 -48v48h13v-96h-7l-55 51v-51h-11v96zM876 1326h23v-72l2 -6l5 -2
l7 2l3 6v72h22v-72q0 -11 -5.5 -17.5t-15.5 -6.5h-21q-20 0 -20 23v73zM733 1024l782 -783h-70l-712 713v70zM733 883l641 -642h-69l-572 573v69zM733 673v70l502 -502h-70zM1094 241h-70l-291 291v71zM761 268q-22 22 -26 52l77 -78q-30 4 -51 26zM938 156
q0 -11 -5.5 -17.5t-15.5 -6.5h-21q-20 0 -20 23v73h23v-72l2 -6l5 -3l7 3l3 6v72h22v-72zM884 241l-151 150v70l221 -220h-70zM1034 132h-7l-55 51v-51h-11v96h6l54 -48v48h13v-96zM1117 156q0 -24 -20 -24h-42v97l42 -1q20 0 20 -21v-51zM1192 213h-28v-28h19v-13h-19v-27
h28v-13h-53v96h53v-15zM1269 213h-30v-28h21v-13h-21v-40h-23v96h53v-15zM1310 132h-24v96h24v-96zM1406 132h-6l-54 51v-51h-11v96h6l52 -48v48h13v-96zM1483 213h-28v-28h19v-13h-19v-27h28v-13h-52v96h52v-15zM1568 156q0 -24 -20 -24h-42v97l41 -1q21 0 21 -21v-51z
M1620 241h-35l-852 853v35q0 15 6 31l911 -913q-15 -6 -30 -6zM1691 277l-922 924q23 17 51 18l890 -891q-2 -28 -19 -51zM1711 398l-820 818h69l751 -748v-70zM1086 1313h-9v-68h9l6 3l2 6v50l-3 6zM1537 1313h-9v-68h9l6 3l2 6v50l-2 6zM1086 213h-9v-68h9l6 4l2 7v50
l-3 5zM1537 213h-9v-68h9l6 4l2 7v50l-2 5z" />
    <glyph glyph-name="uniEA1F" unicode="&#xea1f;" 
d="M1720 1339h-996q-48 0 -80 -32q-33 -34 -33 -78v-997q0 -47 33.5 -81t79.5 -34h996q45 0 79 34t34 81v997q0 45 -34 78q-31 32 -79 32zM1620 1216q39 0 64 -25q27 -27 27 -62v-26l-117 113h26zM1711 1033v0v-70l-257 253h70zM1506 1326h42q20 0 20 -21v-51
q0 -11 -5 -17.5t-15 -6.5h-42v96zM1431 1326h52v-13h-28v-27h19v-13h-19v-28h28v-15h-52v96zM1335 1326h6l52 -48v48h13v-96h-6l-54 51v-51h-11v96zM1384 1216l327 -323v-71l-397 394h70zM1711 752v-73l-540 537h73l467 -464v0zM1711 609v0v-71l-680 678h69zM1286 1326h24
v-96h-24v96zM1216 1328h53v-15h-30v-27h21v-13h-21v-41h-23v96zM1139 1326h53v-13h-28v-27h19v-13h-19v-28h28v-15h-53v96zM1055 1326h42q20 0 20 -21v-51q0 -11 -5 -17.5t-15 -6.5h-42v96zM961 1326h6l54 -48v48h13v-96h-7l-55 51v-51h-11v96zM876 1326h23v-72l2 -6l5 -2
l7 2l3 6v72h22v-72q0 -11 -5.5 -17.5t-15.5 -6.5h-21q-20 0 -20 23v73zM733 1024l782 -783h-70l-712 713v70zM733 883l641 -642h-69l-572 573v69zM733 673v70l502 -502h-70zM1094 241h-70l-291 291v71zM761 268q-22 22 -26 52l77 -78q-30 4 -51 26zM938 156
q0 -11 -5.5 -17.5t-15.5 -6.5h-21q-20 0 -20 23v73h23v-72l2 -6l5 -3l7 3l3 6v72h22v-72zM884 241l-151 150v70l221 -220h-70zM1034 132h-7l-55 51v-51h-11v96h6l54 -48v48h13v-96zM1117 156q0 -24 -20 -24h-42v97l42 -1q20 0 20 -21v-51zM1192 213h-28v-28h19v-13h-19v-27
h28v-13h-53v96h53v-15zM1269 213h-30v-28h21v-13h-21v-40h-23v96h53v-15zM1310 132h-24v96h24v-96zM1406 132h-6l-54 51v-51h-11v96h6l52 -48v48h13v-96zM1483 213h-28v-28h19v-13h-19v-27h28v-13h-52v96h52v-15zM1568 156q0 -24 -20 -24h-42v97l41 -1q21 0 21 -21v-51z
M1620 241h-35l-852 853v35q0 15 6 31l911 -913q-15 -6 -30 -6zM1691 277l-922 924q23 17 51 18l890 -891q-2 -28 -19 -51zM1711 398l-820 818h69l751 -748v-70zM1537 1313h-9v-68h9l6 3l2 6v50l-2 6zM1537 213h-9v-68h9l6 4l2 7v50l-2 5zM1086 1313h-9v-68h9l6 3l2 6v50
l-3 6zM1086 213h-9v-68h9l6 4l2 7v50l-3 5z" />
    <glyph glyph-name="uniEA20" unicode="&#xea20;" 
d="M1086 1313h-9v-68h9l6 3l2 6v50l-3 6zM1537 1313h-9v-68h9l6 3l2 6v50l-2 6zM1086 213h-9v-68h9l6 4l2 7v50l-3 5zM1537 213h-9v-68h9l6 4l2 7v50l-2 5zM1720 1339h-996q-48 0 -80 -32q-33 -34 -33 -78v-997q0 -47 33.5 -81t79.5 -34h996q45 0 79 34t34 81v997
q0 45 -34 78q-31 32 -79 32zM1620 1216q39 0 64 -25q27 -27 27 -62v-26l-117 113h26zM1711 1033v0v-70l-257 253h70zM1506 1326h42q20 0 20 -21v-51q0 -11 -5 -17.5t-15 -6.5h-42v96zM1431 1326h52v-13h-28v-27h19v-13h-19v-28h28v-15h-52v96zM1335 1326h6l52 -48v48h13v-96
h-6l-54 51v-51h-11v96zM1384 1216l327 -323v-71l-397 394h70zM1711 752v-73l-540 537h73l467 -464v0zM1711 609v0v-71l-680 678h69zM1286 1326h24v-96h-24v96zM1216 1328h53v-15h-30v-27h21v-13h-21v-41h-23v96zM1139 1326h53v-13h-28v-27h19v-13h-19v-28h28v-15h-53v96z
M1055 1326h42q20 0 20 -21v-51q0 -11 -5 -17.5t-15 -6.5h-42v96zM961 1326h6l54 -48v48h13v-96h-7l-55 51v-51h-11v96zM876 1326h23v-72l2 -6l5 -2l7 2l3 6v72h22v-72q0 -11 -5.5 -17.5t-15.5 -6.5h-21q-20 0 -20 23v73zM733 1024l782 -783h-70l-712 713v70zM733 883
l641 -642h-69l-572 573v69zM733 673v70l502 -502h-70zM1094 241h-70l-291 291v71zM761 268q-22 22 -26 52l77 -78q-30 4 -51 26zM938 156q0 -11 -5.5 -17.5t-15.5 -6.5h-21q-20 0 -20 23v73h23v-72l2 -6l5 -3l7 3l3 6v72h22v-72zM884 241l-151 150v70l221 -220h-70z
M1034 132h-7l-55 51v-51h-11v96h6l54 -48v48h13v-96zM1117 156q0 -24 -20 -24h-42v97l42 -1q20 0 20 -21v-51zM1192 213h-28v-28h19v-13h-19v-27h28v-13h-53v96h53v-15zM1269 213h-30v-28h21v-13h-21v-40h-23v96h53v-15zM1310 132h-24v96h24v-96zM1406 132h-6l-54 51v-51
h-11v96h6l52 -48v48h13v-96zM1483 213h-28v-28h19v-13h-19v-27h28v-13h-52v96h52v-15zM1568 156q0 -24 -20 -24h-42v97l41 -1q21 0 21 -21v-51zM1620 241h-35l-852 853v35q0 15 6 31l911 -913q-15 -6 -30 -6zM1691 277l-922 924q23 17 51 18l890 -891q-2 -28 -19 -51z
M1711 398l-820 818h69l751 -748v-70z" />
    <glyph glyph-name="uniEA21" unicode="&#xea21;" 
d="M1720 117q45 0 79 34t34 81v997q0 45 -34 78q-31 32 -79 32h-996q-48 0 -80 -32q-33 -34 -33 -78v-997q0 -47 33.5 -81t79.5 -34h996zM761 268q-22 22 -26 52l77 -78q-30 4 -51 26zM938 156q0 -11 -5.5 -17.5t-15.5 -6.5h-21q-20 0 -20 23v73h23v-72l2 -6l5 -3l7 3l3 6
v72h22v-72zM884 241l-151 150v70l221 -220h-70zM1094 241h-70l-291 291v71zM733 673v70l502 -502h-70zM1034 132h-7l-55 51v-51h-11v96h6l54 -48v48h13v-96zM1117 156q0 -24 -20 -24h-42v97l42 -1q20 0 20 -21v-51zM1192 213h-28v-28h19v-13h-19v-27h28v-13h-53v96h53v-15z
M1269 213h-30v-28h21v-13h-21v-40h-23v96h53v-15zM1310 132h-24v96h24v-96zM1406 132h-6l-54 51v-51h-11v96h6l52 -48v48h13v-96zM1483 213h-28v-28h19v-13h-19v-27h28v-13h-52v96h52v-15zM1568 156q0 -24 -20 -24h-42v97l41 -1q21 0 21 -21v-51zM1620 1216q39 0 64 -25
q27 -27 27 -62v-26l-117 113h26zM1711 1033v0v-70l-257 253h70zM1506 1326h42q20 0 20 -21v-51q0 -11 -5 -17.5t-15 -6.5h-42v96zM1431 1326h52v-13h-28v-27h19v-13h-19v-28h28v-15h-52v96zM1335 1326h6l52 -48v48h13v-96h-6l-54 51v-51h-11v96zM1384 1216l327 -323v-71
l-397 394h70zM1711 752v-73l-540 537h73l467 -464v0zM1711 609v0v-71l-680 678h69zM1286 1326h24v-96h-24v96zM1216 1328h53v-15h-30v-27h21v-13h-21v-41h-23v96zM1139 1326h53v-13h-28v-27h19v-13h-19v-28h28v-15h-53v96zM1055 1326h42q20 0 20 -21v-51q0 -11 -5 -17.5
t-15 -6.5h-42v96zM961 1326h6l54 -48v48h13v-96h-7l-55 51v-51h-11v96zM1711 468v0v-70l-820 818h69zM876 1326h23v-72l2 -6l5 -2l7 2l3 6v72h22v-72q0 -11 -5.5 -17.5t-15.5 -6.5h-21q-20 0 -20 23v73zM820 1219l890 -891q-2 -28 -19 -51l-922 924q23 17 51 18zM733 1129
q0 15 6 31l911 -913q-15 -6 -30 -6h-35l-852 853v35zM733 1024l782 -783h-70l-712 713v70zM733 883l641 -642h-69l-572 573v69zM1086 213h-9v-68h9l6 4l2 7v50l-3 5zM1086 1313h-9v-68h9l6 3l2 6v50l-3 6zM1537 1313h-9v-68h9l6 3l2 6v50l-2 6zM1537 213h-9v-68h9l6 4l2 7
v50l-2 5z" />
    <glyph glyph-name="uniEA22" unicode="&#xea22;" 
d="M1537 1313h-9v-68h9l6 3l2 6v50l-2 6zM1086 1313h-9v-68h9l6 3l2 6v50l-3 6zM1537 213h-9v-68h9l6 4l2 7v50l-2 5zM1086 213h-9v-68h9l6 4l2 7v50l-3 5zM1720 1339h-996q-48 0 -80 -32q-33 -34 -33 -78v-997q0 -47 33.5 -81t79.5 -34h996q45 0 79 34t34 81v997
q0 45 -34 78q-31 32 -79 32zM1620 1216q39 0 64 -25q27 -27 27 -62v-26l-117 113h26zM1711 1033v0v-70l-257 253h70zM1506 1326h42q20 0 20 -21v-51q0 -11 -5 -17.5t-15 -6.5h-42v96zM1431 1326h52v-13h-28v-27h19v-13h-19v-28h28v-15h-52v96zM1335 1326h6l52 -48v48h13v-96
h-6l-54 51v-51h-11v96zM1384 1216l327 -323v-71l-397 394h70zM1711 752v-73l-540 537h73l467 -464v0zM1711 609v0v-71l-680 678h69zM1286 1326h24v-96h-24v96zM1216 1328h53v-15h-30v-27h21v-13h-21v-41h-23v96zM1139 1326h53v-13h-28v-27h19v-13h-19v-28h28v-15h-53v96z
M1055 1326h42q20 0 20 -21v-51q0 -11 -5 -17.5t-15 -6.5h-42v96zM961 1326h6l54 -48v48h13v-96h-7l-55 51v-51h-11v96zM876 1326h23v-72l2 -6l5 -2l7 2l3 6v72h22v-72q0 -11 -5.5 -17.5t-15.5 -6.5h-21q-20 0 -20 23v73zM733 1024l782 -783h-70l-712 713v70zM733 883
l641 -642h-69l-572 573v69zM733 673v70l502 -502h-70zM1094 241h-70l-291 291v71zM761 268q-22 22 -26 52l77 -78q-30 4 -51 26zM938 156q0 -11 -5.5 -17.5t-15.5 -6.5h-21q-20 0 -20 23v73h23v-72l2 -6l5 -3l7 3l3 6v72h22v-72zM884 241l-151 150v70l221 -220h-70z
M1034 132h-7l-55 51v-51h-11v96h6l54 -48v48h13v-96zM1117 156q0 -24 -20 -24h-42v97l42 -1q20 0 20 -21v-51zM1192 213h-28v-28h19v-13h-19v-27h28v-13h-53v96h53v-15zM1269 213h-30v-28h21v-13h-21v-40h-23v96h53v-15zM1310 132h-24v96h24v-96zM1406 132h-6l-54 51v-51
h-11v96h6l52 -48v48h13v-96zM1483 213h-28v-28h19v-13h-19v-27h28v-13h-52v96h52v-15zM1568 156q0 -24 -20 -24h-42v97l41 -1q21 0 21 -21v-51zM1620 241h-35l-852 853v35q0 15 6 31l911 -913q-15 -6 -30 -6zM1691 277l-922 924q23 17 51 18l890 -891q-2 -28 -19 -51z
M1711 398l-820 818h69l751 -748v-70z" />
    <glyph glyph-name="uniEA23" unicode="&#xea23;" 
d="M1537 213h-9v-68h9l6 4l2 7v50l-2 5zM1086 1313h-9v-68h9l6 3l2 6v50l-3 6zM1086 213h-9v-68h9l6 4l2 7v50l-3 5zM1720 1339h-996q-48 0 -80 -32q-33 -34 -33 -78v-997q0 -47 33.5 -81t79.5 -34h996q45 0 79 34t34 81v997q0 45 -34 78q-31 32 -79 32zM1620 1216
q39 0 64 -25q27 -27 27 -62v-26l-117 113h26zM1711 1033v0v-70l-257 253h70zM1506 1326h42q20 0 20 -21v-51q0 -11 -5 -17.5t-15 -6.5h-42v96zM1431 1326h52v-13h-28v-27h19v-13h-19v-28h28v-15h-52v96zM1335 1326h6l52 -48v48h13v-96h-6l-54 51v-51h-11v96zM1384 1216
l327 -323v-71l-397 394h70zM1711 752v-73l-540 537h73l467 -464v0zM1711 609v0v-71l-680 678h69zM1286 1326h24v-96h-24v96zM1216 1328h53v-15h-30v-27h21v-13h-21v-41h-23v96zM1139 1326h53v-13h-28v-27h19v-13h-19v-28h28v-15h-53v96zM1055 1326h42q20 0 20 -21v-51
q0 -11 -5 -17.5t-15 -6.5h-42v96zM961 1326h6l54 -48v48h13v-96h-7l-55 51v-51h-11v96zM876 1326h23v-72l2 -6l5 -2l7 2l3 6v72h22v-72q0 -11 -5.5 -17.5t-15.5 -6.5h-21q-20 0 -20 23v73zM733 1024l782 -783h-70l-712 713v70zM733 883l641 -642h-69l-572 573v69zM733 673
v70l502 -502h-70zM1094 241h-70l-291 291v71zM761 268q-22 22 -26 52l77 -78q-30 4 -51 26zM938 156q0 -11 -5.5 -17.5t-15.5 -6.5h-21q-20 0 -20 23v73h23v-72l2 -6l5 -3l7 3l3 6v72h22v-72zM884 241l-151 150v70l221 -220h-70zM1034 132h-7l-55 51v-51h-11v96h6l54 -48v48
h13v-96zM1117 156q0 -24 -20 -24h-42v97l42 -1q20 0 20 -21v-51zM1192 213h-28v-28h19v-13h-19v-27h28v-13h-53v96h53v-15zM1269 213h-30v-28h21v-13h-21v-40h-23v96h53v-15zM1310 132h-24v96h24v-96zM1406 132h-6l-54 51v-51h-11v96h6l52 -48v48h13v-96zM1483 213h-28v-28
h19v-13h-19v-27h28v-13h-52v96h52v-15zM1568 156q0 -24 -20 -24h-42v97l41 -1q21 0 21 -21v-51zM1620 241h-35l-852 853v35q0 15 6 31l911 -913q-15 -6 -30 -6zM1691 277l-922 924q23 17 51 18l890 -891q-2 -28 -19 -51zM1711 398l-820 818h69l751 -748v-70zM1537 1313h-9
v-68h9l6 3l2 6v50l-2 6z" />
    <glyph glyph-name="uniF300" unicode="&#xf300;" horiz-adv-x="800" 
d="M561 1100l-493 -566l493 -565l124 107l-399 458l399 459z" />
    <glyph glyph-name="uniF301" unicode="&#xf301;" horiz-adv-x="800" 
d="M115 76l124 -107l493 565l-493 566l-124 -107l399 -459z" />
    <glyph glyph-name="uniF302" unicode="&#xf302;" horiz-adv-x="1222" 
d="M611 649l458 -399l108 123l-566 493l-566 -493l108 -123z" />
    <glyph glyph-name="uniF303" unicode="&#xf303;" horiz-adv-x="1222" 
d="M153 819l-108 -123l566 -493l566 493l-108 123l-458 -399z" />
    <glyph glyph-name="uniF304" unicode="&#xf304;" horiz-adv-x="2200" 
d="M1100 1770q-218 0 -416 -84q-192 -81 -340 -229t-229 -340q-84 -199 -84 -416.5t84 -416.5q81 -191 229 -339t340 -230q198 -84 415.5 -84t416.5 84q192 82 340 230t229 339q84 199 84 416.5t-84 416.5q-81 192 -229 340t-340 229q-199 84 -416 84zM1987 883
q18 -90 18 -182.5t-18 -182.5q-18 -87 -52.5 -168.5t-83.5 -154.5t-111 -134.5t-134.5 -110.5t-154 -83.5t-168.5 -52.5q-90 -19 -183 -19t-183 19q-87 18 -168.5 52.5t-154 83.5t-134.5 110.5t-111 134.5t-83.5 154.5t-52.5 168.5q-18 90 -18 182.5t18 182.5
q18 88 52.5 169.5t83.5 154t111 134.5t134.5 111t154 83.5t168.5 51.5q90 19 183 19t183 -19q87 -17 168.5 -51.5t154 -83.5t134.5 -111t111 -134.5t83.5 -154t52.5 -169.5zM1305 1108l-124 108l-448 -515l448 -515l124 107l-355 408z" />
    <glyph glyph-name="uniF305" unicode="&#xf305;" horiz-adv-x="2200" 
d="M1100 -369q218 0 416 84q192 82 340 230t229 339q84 199 84 416.5t-84 416.5q-81 192 -229 340t-340 229q-198 84 -416 84t-416 -84q-192 -81 -340 -229t-229 -340q-84 -199 -84 -416.5t84 -416.5q81 -191 229 -339t340 -230q198 -84 416 -84zM213 518q-18 90 -18 182.5
t18 182.5q18 88 52.5 169.5t83.5 154t111 134t134.5 111t154 84t168.5 51.5q90 19 183 19t183 -19q87 -17 168.5 -51.5t154 -83.5t134.5 -111t111 -134.5t83.5 -154t52.5 -169.5q18 -90 18 -182.5t-18 -182.5q-18 -87 -52.5 -168.5t-83.5 -154.5t-111 -134.5t-134.5 -110.5
t-154 -83.5t-168.5 -52.5q-90 -19 -183 -19t-183 19q-87 18 -168.5 52.5t-154 83.5t-134.5 110.5t-111 134.5t-83.5 154.5t-52.5 168.5zM895 293l124 -107l448 515l-448 515l-124 -108l355 -407z" />
    <glyph glyph-name="uniF306" unicode="&#xf306;" horiz-adv-x="2200" 
d="M1100 1770q-218 0 -416 -84q-192 -81 -340 -229t-229 -340q-84 -199 -84 -416.5t84 -416.5q81 -191 229 -339t340 -230q198 -84 416 -84t416 84q192 82 340 230t229 339q84 199 84 416.5t-84 416.5q-81 192 -229 340t-340 229q-198 84 -416 84zM1987 883
q18 -90 18 -182.5t-18 -182.5q-18 -87 -52.5 -168.5t-83.5 -154.5t-111 -134.5t-134.5 -110.5t-154 -83.5t-168.5 -52.5q-90 -19 -183 -19t-183 19q-87 18 -168.5 52.5t-154 83.5t-134.5 110.5t-111 134.5t-83.5 154.5t-52.5 168.5q-18 90 -18 182.5t18 182.5
q18 88 52.5 169.5t83.5 154t111 134.5t134.5 111t154 83.5t168.5 51.5q90 19 183 19t183 -19q87 -17 168.5 -51.5t154 -83.5t134.5 -111t111 -134.5t83.5 -154t52.5 -169.5zM585 619l108 -123l407 354l407 -354l108 123l-515 449z" />
    <glyph glyph-name="uniF307" unicode="&#xf307;" horiz-adv-x="2200" 
d="M1100 1770q-218 0 -416 -84q-192 -81 -340 -229t-229 -340q-84 -199 -84 -416.5t84 -416.5q81 -191 229 -339t340 -230q198 -84 416 -84t416 84q192 82 340 230t229 339q84 199 84 416.5t-84 416.5q-81 192 -229 340t-340 229q-198 84 -416 84zM1987 883
q18 -90 18 -182.5t-18 -182.5q-18 -87 -52.5 -168.5t-83.5 -154.5t-111 -134.5t-134.5 -110.5t-154 -83.5t-168.5 -52.5q-90 -19 -183 -19t-183 19q-87 18 -168.5 52.5t-154 83.5t-134.5 110.5t-111 134.5t-83.5 154.5t-52.5 168.5q-18 90 -18 182.5t18 182.5
q18 88 52.5 169.5t83.5 154t111 134.5t134.5 111t154 83.5t168.5 51.5q90 19 183 19t183 -19q87 -17 168.5 -51.5t154 -83.5t134.5 -111t111 -134.5t83.5 -154t52.5 -169.5zM1100 551l-407 355l-108 -124l515 -449l515 449l-108 124z" />
    <glyph glyph-name="uniF308" unicode="&#xf308;" horiz-adv-x="1150" 
d="M989 1064l-414 -414l-414 414l-116 -115l414 -414l-414 -415l116 -115l414 414l414 -414l116 115l-414 415l414 414z" />
    <glyph glyph-name="uniF309" unicode="&#xf309;" horiz-adv-x="1100" 
d="M632 23v430h430v164h-430v430h-164v-430h-430v-164h430v-430h164z" />
    <glyph glyph-name="uniF30A" unicode="&#xf30a;" horiz-adv-x="1100" 
d="M38 617h1024v-164h-1024v164z" />
    <glyph glyph-name="uniF30B" unicode="&#xf30b;" horiz-adv-x="1222" 
d="M155 633l-112 -120l427 -397l709 665l-112 120l-598 -561z" />
    <glyph glyph-name="uniF30C" unicode="&#xf30c;" horiz-adv-x="600" 
d="M217 323h30h136l9 737h-184l9 -708v-29zM229 38q29 -29 71.5 -29t71.5 29t28.5 71.5t-29 71.5t-71 29t-71.5 -29t-29 -71.5t29 -71.5z" />
    <glyph glyph-name="uniF30D" unicode="&#xf30d;" horiz-adv-x="900" 
d="M613 533v0q155 93 155 256q0 57 -23 107t-65.5 87t-100 57t-125.5 20q-74 0 -135 -22q-58 -21 -100 -62q-39 -38 -61.5 -90t-25.5 -114l-1 -23h161l2 20q5 66 45.5 103t109.5 37q66 0 106.5 -35t40.5 -91q0 -48 -22 -80.5t-78 -66.5q-76 -46 -112 -98q-37 -56 -36 -130
v-85h164v66q0 26 4.5 44t14.5 33q22 31 82 67zM430 210q-42 0 -71 -29t-29 -71.5t29 -71.5t71.5 -29t71 29t28.5 71.5t-28.5 71.5t-71.5 29z" />
    <glyph glyph-name="uniF30E" unicode="&#xf30e;" horiz-adv-x="2200" 
d="M1409 1126l-309 -309l-309 309l-116 -116l309 -309l-309 -309l116 -116l309 309l309 -309l116 116l-309 309l309 309zM1100 1770q-218 0 -416 -84q-192 -81 -340 -229t-229 -340q-84 -199 -84 -416.5t84 -416.5q81 -191 229 -339t340 -230q198 -84 415.5 -84t416.5 84
q192 82 340 230t229 339q84 199 84 416.5t-84 416.5q-81 192 -229 340t-340 229q-199 84 -416 84zM1987 883q18 -90 18 -182.5t-18 -182.5q-18 -87 -52.5 -168.5t-83.5 -154.5t-111 -134.5t-134.5 -110.5t-154 -83.5t-168.5 -52.5q-90 -19 -183 -19t-183 19
q-87 18 -168.5 52.5t-154 83.5t-134.5 110.5t-111 134.5t-83.5 154.5t-52.5 168.5q-18 90 -18 182.5t18 182.5q18 88 52.5 169.5t83.5 154t111 134.5t134.5 111t154 83.5t168.5 51.5q90 19 183 19t183 -19q87 -17 168.5 -51.5t154 -83.5t134.5 -111t111 -134.5t83.5 -154
t52.5 -169.5z" />
    <glyph glyph-name="uniF30F" unicode="&#xf30f;" horiz-adv-x="2200" 
d="M1182 1226h-164v-443h-443v-164h443v-443h164v443h443v164h-443v443zM1100 1770q-218 0 -416 -84q-192 -81 -340 -229t-229 -340q-84 -199 -84 -416.5t84 -416.5q81 -191 229 -339t340 -230q198 -84 416 -84t416 84q192 82 340 230t229 339q84 199 84 416.5t-84 416.5
q-81 192 -229 340t-340 229q-198 84 -416 84zM1987 883q18 -90 18 -182.5t-18 -182.5q-18 -87 -52.5 -168.5t-83.5 -154.5t-111 -134.5t-134.5 -110.5t-154 -83.5t-168.5 -52.5q-90 -19 -183 -19t-183 19q-87 18 -168.5 52.5t-154 83.5t-134.5 110.5t-111 134.5t-83.5 154.5
t-52.5 168.5q-18 90 -18 182.5t18 182.5q18 88 52.5 169.5t83.5 154t111 134.5t134.5 111t154 83.5t168.5 51.5q90 19 183 19t183 -19q87 -17 168.5 -51.5t154 -83.5t134.5 -111t111 -134.5t83.5 -154t52.5 -169.5z" />
    <glyph glyph-name="uniF310" unicode="&#xf310;" horiz-adv-x="2200" 
d="M623 783h954v-164h-954v164zM1100 1770q-218 0 -416 -84q-192 -81 -340 -229t-229 -340q-84 -199 -84 -416.5t84 -416.5q81 -191 229 -339t340 -230q198 -84 415.5 -84t416.5 84q192 82 340 230t229 339q84 199 84 416.5t-84 416.5q-81 192 -229 340t-340 229
q-199 84 -416 84zM1987 883q18 -90 18 -182.5t-18 -182.5q-18 -87 -52.5 -168.5t-83.5 -154.5t-111 -134.5t-134.5 -110.5t-154 -83.5t-168.5 -52.5q-90 -19 -183 -19t-183 19q-87 18 -168.5 52.5t-154 83.5t-134.5 110.5t-111 134.5t-83.5 154.5t-52.5 168.5
q-18 90 -18 182.5t18 182.5q18 88 52.5 169.5t83.5 154t111 134.5t134.5 111t154 83.5t168.5 51.5q90 19 183 19t183 -19q87 -17 168.5 -51.5t154 -83.5t134.5 -111t111 -134.5t83.5 -154t52.5 -169.5z" />
    <glyph glyph-name="uniF311" unicode="&#xf311;" horiz-adv-x="2200" 
d="M959 499l-314 292l-112 -121l426 -396l708 664l-112 120zM1100 1770q-217 0 -416 -84q-192 -82 -340 -229.5t-229 -339.5q-84 -199 -84 -416.5t84 -415.5q81 -192 229 -340t340 -229q199 -84 416 -84t416 84q192 81 340 229t229 340q84 198 84 415.5t-84 416.5
q-81 192 -229 339.5t-340 229.5q-199 84 -416 84zM1987 883q18 -90 18 -182.5t-18 -182.5q-18 -87 -52.5 -168.5t-83.5 -154.5t-111 -134.5t-134.5 -110.5t-154 -83.5t-168.5 -52.5q-90 -18 -183 -18t-183 18q-87 18 -168.5 52.5t-154 83.5t-134.5 110.5t-111 134.5
t-83.5 154.5t-52.5 168.5q-18 90 -18 182.5t18 182.5q18 88 52.5 169.5t83.5 154t111 134t134.5 110.5t154 83.5t168.5 52.5q90 19 183 19t183 -19q87 -18 168.5 -52.5t154 -83.5t134.5 -110.5t111 -134t83.5 -154t52.5 -169.5z" />
    <glyph glyph-name="uniF312" unicode="&#xf312;" horiz-adv-x="2200" 
d="M1100 1770q-218 0 -416 -84q-192 -81 -340 -229t-229 -340q-84 -199 -84 -416.5t84 -416.5q81 -191 229 -339t340 -230q198 -84 416 -84t416 84q192 82 340 230t229 339q84 199 84 416.5t-84 416.5q-81 192 -229 340t-340 229q-198 84 -416 84zM1987 883
q18 -90 18 -182.5t-18 -182.5q-18 -87 -52.5 -168.5t-83.5 -154.5t-111 -134.5t-134.5 -110.5t-154 -83.5t-168.5 -52.5q-90 -19 -183 -19t-183 19q-87 18 -168.5 52.5t-154 83.5t-134.5 110.5t-111 134.5t-83.5 154.5t-52.5 168.5q-18 90 -18 182.5t18 182.5
q18 88 52.5 169.5t83.5 154t111 134.5t134.5 111t154 83.5t168.5 51.5q90 19 183 19t183 -19q87 -17 168.5 -51.5t154 -83.5t134.5 -111t111 -134.5t83.5 -154t52.5 -169.5zM1018 520v-28h164l9 734h-182v-29zM1100 376q-42 0 -71 -29t-29.5 -71t29 -71.5t72 -29.5t71.5 29
t29 71.5t-29 71.5t-72 29z" />
    <glyph glyph-name="uniF313" unicode="&#xf313;" horiz-adv-x="2200" 
d="M1100 1770q-218 0 -416 -84q-192 -81 -340 -229t-229 -340q-84 -199 -84 -416.5t84 -416.5q81 -191 229 -339t340 -230q198 -84 415.5 -84t416.5 84q192 82 340 230t229 339q84 199 84 416.5t-84 416.5q-81 192 -229 340t-340 229q-199 84 -416 84zM1941 1056
q36 -83 54 -171q18 -91 18 -184.5t-18 -184.5q-18 -88 -53 -170t-84.5 -155.5t-112 -135.5t-135.5 -111.5t-155.5 -84.5t-170.5 -53q-91 -19 -184.5 -19t-183.5 19q-89 18 -171 53t-155.5 84.5t-135.5 111.5t-111.5 135.5t-84.5 155.5t-53 170q-18 91 -18 184.5t18 184.5
q18 88 53 170.5t84.5 155.5t111.5 135.5t135.5 112t155.5 84t171 52.5q90 19 183.5 19t184.5 -19q88 -18 170.5 -52.5t155.5 -84t135.5 -112t112 -135.5t83.5 -155zM1080 376q-42 0 -71 -28.5t-29 -71t29 -71.5t71 -29t71 29t29 71.5t-29 71t-71 28.5zM1329 1150
q-42 37 -99.5 57t-125.5 20q-74 0 -135 -22q-58 -21 -100 -62q-39 -38 -61 -90t-26 -113l-1 -23h161l1 20q5 66 46 103t110 37q66 0 106.5 -35t40.5 -92q0 -48 -22 -80.5t-78 -66.5q-76 -46 -111 -99q-38 -55 -37 -129v-85h163v66q0 26 5 44t15 33q21 31 82 67v0
q154 93 154 256q0 57 -22.5 107t-65.5 87z" />
    <glyph glyph-name="uniF314" unicode="&#xf314;" horiz-adv-x="2200" 
d="M1100 1770q-218 0 -416 -84q-192 -81 -340 -229t-229 -340q-84 -199 -84 -416.5t84 -416.5q81 -191 229 -339t340 -230q198 -84 415.5 -84t416.5 84q192 82 340 230t229 339q84 199 84 416.5t-84 416.5q-81 192 -229 340t-340 229q-199 84 -416 84zM1525 392l-116 -116
l-309 309l-309 -309l-116 116l309 309l-309 309l116 116l309 -309l309 309l116 -116l-309 -309z" />
    <glyph glyph-name="uniF315" unicode="&#xf315;" horiz-adv-x="2200" 
d="M1100 1770q-218 0 -416 -84q-192 -81 -340 -229t-229 -340q-84 -199 -84 -416.5t84 -416.5q81 -191 229 -339t340 -230q198 -84 416 -84t416 84q192 82 340 230t229 339q84 199 84 416.5t-84 416.5q-81 192 -229 340t-340 229q-198 84 -416 84zM1625 619h-443v-443h-164
v443h-443v164h443v443h164v-443h443v-164z" />
    <glyph glyph-name="uniF316" unicode="&#xf316;" horiz-adv-x="2200" 
d="M1100 1770q-218 0 -416 -84q-192 -81 -340 -229t-229 -340q-84 -199 -84 -416.5t84 -416.5q81 -191 229 -339t340 -230q198 -84 415.5 -84t416.5 84q192 82 340 230t229 339q84 199 84 416.5t-84 416.5q-81 192 -229 340t-340 229q-199 84 -416 84zM1577 619h-954v164
h954v-164z" />
    <glyph glyph-name="uniF317" unicode="&#xf317;" horiz-adv-x="2200" 
d="M1100 1770q-217 0 -416 -84q-192 -82 -340 -229.5t-229 -339.5q-84 -199 -84 -416.5t84 -415.5q81 -192 229 -340t340 -229q199 -84 416 -84t416 84q192 81 340 229t229 340q84 198 84 415.5t-84 416.5q-81 192 -229 339.5t-340 229.5q-199 84 -416 84zM959 274l-426 396
l112 121l314 -292l596 559l112 -120z" />
    <glyph glyph-name="uniF318" unicode="&#xf318;" horiz-adv-x="2200" 
d="M1100 1770q-218 0 -416 -84q-192 -81 -340 -229t-229 -340q-84 -199 -84 -416.5t84 -416.5q81 -191 229 -339t340 -230q198 -84 416 -84t416 84q192 82 340 230t229 339q84 199 84 416.5t-84 416.5q-81 192 -229 340t-340 229q-198 84 -416 84zM1038 1226h124h29l-9 -734
h-164l-9 734h29zM1172 204q-29 -29 -71.5 -29t-72 29t-29 71.5t29.5 71.5t71.5 29t71.5 -29t29 -71.5t-29 -71.5z" />
    <glyph glyph-name="uniF319" unicode="&#xf319;" horiz-adv-x="2200" 
d="M1100 1770q-218 0 -416 -84q-192 -81 -340 -229t-229 -340q-84 -199 -84 -416.5t84 -416.5q81 -191 229 -339t340 -230q198 -84 415.5 -84t416.5 84q192 82 340 230t229 339q84 199 84 416.5t-84 416.5q-81 192 -229 340t-340 229q-199 84 -416 84zM1151 205
q-29 -29 -71 -29t-71 29t-29 71.5t29 71t71 28.5t71 -28.5t29 -71t-29 -71.5zM1263 700v0q-61 -36 -82 -67q-10 -15 -15 -33t-5 -44v-66h-163v85q-1 74 37 129q35 53 111 99q56 34 78 66.5t22 80.5q0 57 -40.5 92t-106.5 35q-69 0 -110 -37t-46 -103l-1 -20h-161l1 23
q4 61 26 113t61 90q42 41 100 62q61 22 135 22q68 0 125.5 -20t100 -57t65 -87t22.5 -107q0 -163 -154 -256z" />
    <glyph glyph-name="uniF31E" unicode="&#xf31e;" horiz-adv-x="2200" 
d="M1100 1770q-218 0 -416 -84q-192 -81 -340 -229t-229 -340q-84 -199 -84 -416.5t84 -416.5q81 -191 229 -339t340 -230q198 -84 415.5 -84t416.5 84q192 82 340 230t229 339q84 199 84 416.5t-84 416.5q-81 192 -229 340t-340 229q-199 84 -416 84zM1987 883
q18 -90 18 -182.5t-18 -182.5q-18 -87 -52.5 -168.5t-83.5 -154.5t-111 -134.5t-134.5 -110.5t-154 -83.5t-168.5 -52.5q-90 -19 -183 -19t-183 19q-87 18 -168.5 52.5t-154 83.5t-134.5 110.5t-111 134.5t-83.5 154.5t-52.5 168.5q-18 90 -18 182.5t18 182.5
q18 88 52.5 169.5t83.5 154t111 134.5t134.5 111t154 83.5t168.5 51.5q90 19 183 19t183 -19q87 -17 168.5 -51.5t154 -83.5t134.5 -111t111 -134.5t83.5 -154t52.5 -169.5zM1537 788l-628 381q-23 14 -50.5 14t-51 -13.5t-37 -37t-13.5 -50.5v-762q0 -27 13.5 -50.5
t37 -37.5t50.5 -14t52 15l626 380q24 13 37.5 37t13.5 50.5t-13.5 50t-36.5 37.5zM921 431v539l444 -269z" />
    <glyph glyph-name="uniF31F" unicode="&#xf31f;" horiz-adv-x="2200" 
d="M1100 -369q217 0 416 84q192 82 340 230t229 339q84 199 84 416.5t-84 416.5q-81 192 -229 340t-340 229q-199 84 -416.5 84t-415.5 -84q-192 -81 -340 -229t-229 -340q-84 -199 -84 -416.5t84 -416.5q81 -191 229 -339t340 -230q198 -84 416 -84zM213 518
q-18 90 -18 182.5t18 182.5q18 88 52.5 169.5t83.5 154t111 134.5t134.5 111t154 83.5t168.5 51.5q90 19 183 19t183 -19q87 -17 168.5 -51.5t154 -83.5t134.5 -111t111 -134.5t83.5 -154t52.5 -169.5q18 -90 18 -182.5t-18 -182.5q-18 -87 -52.5 -168.5t-83.5 -154.5
t-111 -134.5t-134.5 -110.5t-154 -83.5t-168.5 -52.5q-90 -19 -183 -19t-183 19q-87 18 -168.5 52.5t-154 83.5t-134.5 110.5t-111 134.5t-83.5 154.5t-52.5 168.5zM1300 1149h164v-896h-164v896zM736 1149h164v-896h-164v896z" />
    <glyph glyph-name="uniF320" unicode="&#xf320;" horiz-adv-x="2200" 
d="M1100 1770q-218 0 -416 -84q-192 -81 -340 -229t-229 -340q-84 -199 -84 -416.5t84 -416.5q81 -191 229 -339t340 -230q198 -84 416 -84t416 84q192 82 340 230t229 339q84 199 84 416.5t-84 416.5q-81 192 -229 340t-340 229q-198 84 -416 84zM1987 883
q18 -90 18 -182.5t-18 -182.5q-18 -87 -52.5 -168.5t-83.5 -154.5t-111 -134.5t-134.5 -110.5t-154 -83.5t-168.5 -52.5q-90 -19 -183 -19t-183 19q-87 18 -168.5 52.5t-154 83.5t-134.5 110.5t-111 134.5t-83.5 154.5t-52.5 168.5q-18 90 -18 182.5t18 182.5
q18 88 52.5 169.5t83.5 154t111 134.5t134.5 111t154 83.5t168.5 51.5q90 19 183 19t183 -19q87 -17 168.5 -51.5t154 -83.5t134.5 -111t111 -134.5t83.5 -154t52.5 -169.5zM1448 1149h-696q-41 0 -70.5 -29.5t-29.5 -70.5v-696q0 -42 29.5 -71t70.5 -29h696q41 0 70.5 29
t29.5 71v696q0 41 -29.5 70.5t-70.5 29.5zM1384 417h-568v568h568v-568z" />
    <glyph glyph-name="uniF321" unicode="&#xf321;" horiz-adv-x="1400" 
d="M1158 507q-37 -89 -106 -158t-158 -107q-93 -39 -194 -39t-194 39q-89 38 -158 107t-106 158q-39 92 -39 193.5t39 193.5q37 89 106 158t158 107q93 39 194 39q22 0 44 -2l-135 -155l124 -107l291 333l-291 334l-124 -107l115 -132h-24q-135 0 -257 -52
q-119 -50 -210.5 -141.5t-141.5 -210.5q-52 -123 -52 -257.5t52 -257.5q50 -118 141.5 -210t210.5 -142q122 -52 257 -52t257 52q119 50 210.5 142t141.5 210q52 123 52 258h-164q0 -102 -39 -194z" />
    <glyph glyph-name="uniF32A" unicode="&#xf32a;" horiz-adv-x="2200" 
d="M1100 1770q-218 0 -416 -84q-192 -81 -340 -229t-229 -340q-84 -199 -84 -416.5t84 -416.5q81 -191 229 -339t340 -230q198 -84 415.5 -84t416.5 84q192 82 340 230t229 339q84 199 84 416.5t-84 416.5q-81 192 -229 340t-340 229q-199 84 -416 84zM1987 883
q18 -90 18 -182.5t-18 -182.5q-18 -87 -52.5 -168.5t-83.5 -154.5t-111 -134.5t-134.5 -110.5t-154 -83.5t-168.5 -52.5q-90 -19 -183 -19t-183 19q-87 18 -168.5 52.5t-154 83.5t-134.5 110.5t-111 134.5t-83.5 154.5t-52.5 168.5q-18 90 -18 182.5t18 182.5
q18 88 52.5 169.5t83.5 154t111 134.5t134.5 111t154 83.5t168.5 51.5q90 19 183 19t183 -19q87 -17 168.5 -51.5t154 -83.5t134.5 -111t111 -134.5t83.5 -154t52.5 -169.5zM1100 1226q-40 0 -69 -28t-29 -68.5t28.5 -69t69 -28.5t69.5 28.5t29 68.5t-29 68.5t-69 28.5z
M1055 957h-37v-782h164v782h-37h-90z" />
    <glyph glyph-name="uniF32B" unicode="&#xf32b;" horiz-adv-x="2200" 
d="M1182 460v766h-164v-766l-283 246l-107 -123l472 -412l472 412l-107 123zM1100 1770q-218 0 -416 -84q-192 -81 -340 -229t-229 -340q-84 -199 -84 -416.5t84 -416.5q81 -191 229 -339t340 -230q198 -84 416 -84t416 84q192 82 340 230t229 339q84 199 84 416.5
t-84 416.5q-81 192 -229 340t-340 229q-198 84 -416 84zM1987 883q18 -90 18 -182.5t-18 -182.5q-18 -87 -52.5 -168.5t-83.5 -154.5t-111 -134.5t-134.5 -110.5t-154 -83.5t-168.5 -52.5q-90 -19 -183 -19t-183 19q-87 18 -168.5 52.5t-154 83.5t-134.5 110.5t-111 134.5
t-83.5 154.5t-52.5 168.5q-18 90 -18 182.5t18 182.5q18 88 52.5 169.5t83.5 154t111 134.5t134.5 111t154 83.5t168.5 51.5q90 19 183 19t183 -19q87 -17 168.5 -51.5t154 -83.5t134.5 -111t111 -134.5t83.5 -154t52.5 -169.5z" />
    <glyph glyph-name="uniF32C" unicode="&#xf32c;" horiz-adv-x="2200" 
d="M1100 1770q-218 0 -416 -84q-192 -81 -340 -229t-229 -340q-84 -199 -84 -416.5t84 -416.5q81 -191 229 -339t340 -230q198 -84 416 -84t416 84q192 82 340 230t229 339q84 199 84 416.5t-84 416.5q-81 192 -229 340t-340 229q-198 84 -416 84zM1987 883
q18 -90 18 -182.5t-18 -182.5q-18 -87 -52.5 -168.5t-83.5 -154.5t-111 -134.5t-134.5 -110.5t-154 -83.5t-168.5 -52.5q-90 -19 -183 -19t-183 19q-87 18 -168.5 52.5t-154 83.5t-134.5 110.5t-111 134.5t-83.5 154.5t-52.5 168.5q-18 90 -18 182.5t18 182.5
q18 88 52.5 169.5t83.5 154t111 134.5t134.5 111t154 83.5t168.5 51.5q90 19 183 19t183 -19q87 -17 168.5 -51.5t154 -83.5t134.5 -111t111 -134.5t83.5 -154t52.5 -169.5z" />
    <glyph glyph-name="uniF32D" unicode="&#xf32d;" horiz-adv-x="1350" 
d="M208 -48l910 910v-667h164v947h-946v-164h666l-910 -911z" />
    <glyph glyph-name="uniF32E" unicode="&#xf32e;" horiz-adv-x="1300" 
d="M906 1007v-164h172v-791h-856v791h172v164h-336v-1119h1184v1119h-336zM568 1289v-728h164v728l180 -180l116 116l-378 378l-378 -378l116 -116z" />
    <glyph glyph-name="uniF342" unicode="&#xf342;" horiz-adv-x="1900" 
d="M950 1582q-175 0 -335 -68q-154 -65 -273 -184t-184 -274q-68 -160 -68 -334.5t68 -334.5q65 -155 184 -274t273 -184q160 -67 335 -67t335 67q154 65 273 184t184 274q68 160 68 334.5t-68 334.5q-65 155 -184 274t-273 184q-160 68 -335 68zM1646 722q0 -142 -55 -271
q-26 -62 -63.5 -118t-85 -103.5t-103.5 -85.5t-118 -64q-129 -54 -271 -54t-271 54q-62 26 -118 64t-103.5 85.5t-85 103.5t-63.5 118q-55 129 -55 270.5t55 270.5q26 62 63.5 118t85 103.5t103.5 85.5t118 64q129 54 271 54t271 -54q62 -26 118 -64t103.5 -85.5t85 -103.5
t63.5 -118q55 -129 55 -271v1zM751 915v-139l138 91h3v-422h166v564h-166z" />
    <glyph glyph-name="uniF343" unicode="&#xf343;" horiz-adv-x="1900" 
d="M950 1582q-175 0 -335 -68q-154 -65 -273 -184t-184 -274q-68 -160 -68 -334.5t68 -334.5q65 -155 184 -274t273 -184q160 -67 335 -67t335 67q154 65 273 184t184 274q68 160 68 334.5t-68 334.5q-65 155 -184 274t-273 184q-160 68 -335 68zM1646 722q0 -142 -55 -271
q-26 -62 -63.5 -118t-85 -103.5t-103.5 -85.5t-118 -64q-129 -54 -271 -54t-271 54q-62 26 -118 64t-103.5 85.5t-85 103.5t-63.5 118q-55 129 -55 270.5t55 270.5q26 62 63.5 118t85 103.5t103.5 85.5t118 64q129 54 271 54t271 -54q62 -26 118 -64t103.5 -85.5t85 -103.5
t63.5 -118q55 -129 55 -271v1zM963 574l133 117q38 33 59 62q36 50 36 100.5t-27 89.5t-77 60.5t-118 21.5t-120 -24t-80.5 -68t-28.5 -101v-3h151v4q0 30 20.5 50t52 20t49.5 -15.5t18 -39t-13 -45t-42 -47.5l-226 -200v-111h447v125h-234v4z" />
    <glyph glyph-name="uniF344" unicode="&#xf344;" horiz-adv-x="1900" 
d="M950 1582q-175 0 -335 -68q-154 -65 -273 -184t-184 -274q-68 -160 -68 -334.5t68 -334.5q65 -155 184 -274t273 -184q160 -67 335 -67t335 67q154 65 273 184t184 274q68 160 68 334.5t-68 334.5q-65 155 -184 274t-273 184q-160 68 -335 68zM1646 722q0 -142 -55 -271
q-26 -62 -63.5 -118t-85 -103.5t-103.5 -85.5t-118 -64q-129 -54 -271 -54t-271 54q-62 26 -118 64t-103.5 85.5t-85 103.5t-63.5 118q-55 129 -55 270.5t55 270.5q26 62 63.5 118t85 103.5t103.5 85.5t118 64q129 54 271 54t271 -54q62 -26 118 -64t103.5 -85.5t85 -103.5
t63.5 -118q55 -129 55 -271v1zM1054 737v3q52 9 85 44t33 85q0 48 -26.5 83t-75.5 54t-116 19q-68 0 -120.5 -23.5t-81 -66t-28.5 -98.5h149q0 30 20.5 48.5t54 18.5t53 -15.5t19.5 -42t-19 -42.5t-52 -16h-68v-110h68q35 0 54.5 -16t19.5 -43t-20 -44t-53 -17
q-36 0 -57 16.5t-22 44.5h-158q3 -57 32.5 -100t81.5 -66t120 -23q74 0 129.5 21t85.5 60t30 91q0 57 -37 92.5t-101 42.5z" />
    <glyph glyph-name="uniF345" unicode="&#xf345;" horiz-adv-x="1900" 
d="M950 1582q-175 0 -335 -68q-154 -65 -273 -184t-184 -274q-68 -160 -68 -334.5t68 -334.5q65 -155 184 -274t273 -184q160 -67 335 -67t335 67q154 65 273 184t184 274q68 160 68 334.5t-68 334.5q-65 155 -184 274t-273 184q-160 68 -335 68zM1646 722q0 -142 -55 -271
q-26 -62 -63.5 -118t-85 -103.5t-103.5 -85.5t-118 -64q-129 -54 -271 -54t-271 54q-62 26 -118 64t-103.5 85.5t-85 103.5t-63.5 118q-55 129 -55 270.5t55 270.5q26 62 63.5 118t85 103.5t103.5 85.5t118 64q129 54 271 54t271 -54q62 -26 118 -64t103.5 -85.5t85 -103.5
t63.5 -118q55 -129 55 -271v1zM1120 1009h-229q-73 -111 -120 -191q-46 -77 -85 -152v-137h278v-84h156v84h67v127h-67v353zM968 649h-144v5q32 68 66 127q26 44 75 120h3v-252z" />
    <glyph glyph-name="uniF346" unicode="&#xf346;" horiz-adv-x="1900" 
d="M950 1582q-175 0 -335 -68q-154 -65 -273 -184t-184 -274q-68 -160 -68 -334.5t68 -334.5q65 -155 184 -274t273 -184q160 -67 335 -67t335 67q154 65 273 184t184 274q68 160 68 334.5t-68 334.5q-65 155 -184 274t-273 184q-160 68 -335 68zM1646 722q0 -142 -55 -271
q-26 -62 -63.5 -118t-85 -103.5t-103.5 -85.5t-118 -64q-129 -54 -271 -54t-271 54q-62 26 -118 64t-103.5 85.5t-85 103.5t-63.5 118q-55 129 -55 270.5t55 270.5q26 62 63.5 118t85 103.5t103.5 85.5t118 64q129 54 271 54t271 -54q62 -26 118 -64t103.5 -85.5t85 -103.5
t63.5 -118q55 -129 55 -271v1zM1012 828q-44 0 -76.5 -18.5t-47.5 -50.5h-3l8 125h267v125h-394l-25 -333h145q12 19 32.5 30t44.5 11q35 0 56.5 -22.5t21.5 -59t-21.5 -58.5t-56.5 -22q-31 0 -54 16.5t-28 42.5h-149q0 -53 29.5 -95t81.5 -65.5t119 -23.5q69 0 122.5 26
t82.5 73t29 109q0 55 -23.5 98t-65.5 67.5t-95 24.5z" />
    <glyph glyph-name="uniF347" unicode="&#xf347;" horiz-adv-x="1900" 
d="M950 -138q175 0 335 67q154 65 273 184t184 274q68 160 68 334.5t-68 334.5q-65 155 -184 274t-273 184q-160 68 -335 68t-335 -68q-154 -65 -273 -184t-184 -274q-68 -160 -68 -334.5t68 -334.5q65 -155 184 -274t273 -184q160 -67 335 -67zM254 722q0 141 55 270
q26 62 63.5 118t85 103.5t103.5 85.5t118 64q129 54 271 54t271 -54q62 -26 118 -64t103.5 -85.5t85 -103.5t63.5 -118q55 -129 55 -270.5t-55 -270.5q-26 -62 -63.5 -118t-85 -103.5t-103.5 -85.5t-118 -64q-129 -54 -271 -54t-271 54q-62 26 -118 64t-103.5 85.5
t-85 103.5t-63.5 118q-55 129 -55 271zM964 430q67 0 120.5 26t83 73t29.5 106q0 53 -24 95.5t-66.5 66.5t-95.5 24t-91 -26q-36 -24 -51 -66h-3q-4 51 7 90t34.5 60t55.5 21q24 0 42.5 -11.5t24.5 -29.5h160q-6 48 -37.5 85.5t-81 59t-108.5 21.5q-76 0 -133.5 -36
t-89 -103.5t-31.5 -158.5q0 -66 17.5 -122t50 -95t80.5 -59.5t107 -20.5zM962 705q33 0 55 -21.5t22 -53t-22 -53.5t-54.5 -22t-54.5 22t-22 53.5t22 53t54 21.5z" />
    <glyph glyph-name="uniF348" unicode="&#xf348;" horiz-adv-x="1900" 
d="M950 1582q-175 0 -335 -68q-154 -65 -273 -184t-184 -274q-68 -160 -68 -334.5t68 -334.5q65 -155 184 -274t273 -184q160 -67 335 -67t335 67q154 65 273 184t184 274q68 160 68 334.5t-68 334.5q-65 155 -184 274t-273 184q-160 68 -335 68zM1646 722q0 -142 -55 -271
q-26 -62 -63.5 -118t-85 -103.5t-103.5 -85.5t-118 -64q-129 -54 -271 -54t-271 54q-62 26 -118 64t-103.5 85.5t-85 103.5t-63.5 118q-55 129 -55 270.5t55 270.5q26 62 63.5 118t85 103.5t103.5 85.5t118 64q129 54 271 54t271 -54q62 -26 118 -64t103.5 -85.5t85 -103.5
t63.5 -118q55 -129 55 -271v1zM753 884h270v-3l-230 -436h173l220 440v124h-433v-125z" />
    <glyph glyph-name="uniF349" unicode="&#xf349;" horiz-adv-x="1900" 
d="M950 1582q-175 0 -335 -68q-154 -65 -273 -184t-184 -274q-68 -160 -68 -334.5t68 -334.5q65 -155 184 -274t273 -184q160 -67 335 -67t335 67q154 65 273 184t184 274q68 160 68 334.5t-68 334.5q-65 155 -184 274t-273 184q-160 68 -335 68zM1646 722q0 -142 -55 -271
q-26 -62 -63.5 -118t-85 -103.5t-103.5 -85.5t-118 -64q-129 -54 -271 -54t-271 54q-62 26 -118 64t-103.5 85.5t-85 103.5t-63.5 118q-55 129 -55 270.5t55 270.5q26 62 63.5 118t85 103.5t103.5 85.5t118 64q129 54 271 54t271 -54q62 -26 118 -64t103.5 -85.5t85 -103.5
t63.5 -118q55 -129 55 -271v1zM1061 742v3q52 9 86 45.5t34 84.5q0 43 -29 77t-81 53.5t-119.5 19.5t-119.5 -19.5t-81 -53.5t-29 -77q0 -48 34 -84.5t87 -45.5v-3q-64 -6 -104 -45.5t-40 -98.5q0 -50 31 -88t88 -59t133 -21t133 21t88.5 59t31.5 88q0 58 -39.5 98
t-103.5 46zM952 915q28 0 47 -18t19 -44.5t-19 -44.5t-47.5 -18t-47 18t-18.5 44.5t18.5 44.5t47.5 18zM952 540q-35 0 -56.5 20t-21.5 50.5t21.5 50.5t56 20t56 -20t21.5 -50.5t-21.5 -50.5t-55.5 -20z" />
    <glyph glyph-name="uniF34A" unicode="&#xf34a;" horiz-adv-x="1900" 
d="M950 1582q-175 0 -335 -68q-154 -65 -273 -184t-184 -274q-68 -160 -68 -334.5t68 -334.5q65 -155 184 -274t273 -184q160 -67 335 -67t335 67q154 65 273 184t184 274q68 160 68 334.5t-68 334.5q-65 155 -184 274t-273 184q-160 68 -335 68zM1646 722q0 -142 -55 -271
q-26 -62 -63.5 -118t-85 -103.5t-103.5 -85.5t-118 -64q-129 -54 -271 -54t-271 54q-62 26 -118 64t-103.5 85.5t-85 103.5t-63.5 118q-55 129 -55 270.5t55 270.5q26 62 63.5 118t85 103.5t103.5 85.5t118 64q129 54 271 54t271 -54q62 -26 118 -64t103.5 -85.5t85 -103.5
t63.5 -118q55 -129 55 -271v1zM952 1025q-67 0 -120.5 -26t-84 -73t-30.5 -106q0 -53 25 -95.5t67.5 -66.5t94.5 -24q56 0 94 26q36 24 49 66h3q4 -53 -6.5 -91.5t-33.5 -59t-54 -20.5q-26 0 -45.5 11.5t-25.5 29.5h-161q7 -48 38.5 -85.5t81.5 -59t109 -21.5q79 0 136.5 36
t88 103t30.5 159q0 66 -17 122t-49.5 95t-81.5 59.5t-108 20.5zM954 750q-32 0 -54.5 21.5t-22.5 53.5t22.5 53.5t54.5 21.5t54 -21.5t22 -53.5t-22 -53.5t-54 -21.5z" />
    <glyph glyph-name="uniF34B" unicode="&#xf34b;" horiz-adv-x="1900" 
d="M950 1582q-175 0 -335 -68q-154 -65 -273 -184t-184 -274q-68 -160 -68 -334.5t68 -334.5q65 -155 184 -274t273 -184q160 -67 335 -67t335 67q154 65 273 184t184 274q68 160 68 334.5t-68 334.5q-65 155 -184 274t-273 184q-160 68 -335 68zM1646 722q0 -142 -55 -271
q-26 -62 -63.5 -118t-85 -103.5t-103.5 -85.5t-118 -64q-129 -54 -271 -54t-271 54q-62 26 -118 64t-103.5 85.5t-85 103.5t-63.5 118q-55 129 -55 270.5t55 270.5q26 62 63.5 118t85 103.5t103.5 85.5t118 64q129 54 271 54t271 -54q62 -26 118 -64t103.5 -85.5t85 -103.5
t63.5 -118q55 -129 55 -271v1zM495 915v-139l138 91h3v-422h166v564h-166zM1164 1025q-76 0 -132 -35t-86.5 -102t-30.5 -159.5t30.5 -159.5t86.5 -103t131.5 -36t131.5 36t86.5 103.5t30.5 160t-30.5 159t-86.5 101.5t-131 35zM1164 557q-36 0 -58 42q-22 46 -22 130
t22 128q21 41 57.5 41t57.5 -41q22 -44 22 -128t-22 -130q-21 -42 -57 -42z" />
    <glyph glyph-name="uniF34C" unicode="&#xf34c;" horiz-adv-x="1900" 
d="M950 1582q-175 0 -335 -68q-154 -65 -273 -184t-184 -274q-68 -160 -68 -334.5t68 -334.5q65 -155 184 -274t273 -184q160 -67 335 -67t335 67q154 65 273 184t184 274q68 160 68 334.5t-68 334.5q-65 155 -184 274t-273 184q-160 68 -335 68zM1646 722q0 -142 -55 -271
q-26 -62 -63.5 -118t-85 -103.5t-103.5 -85.5t-118 -64q-129 -54 -271 -54t-271 54q-62 26 -118 64t-103.5 85.5t-85 103.5t-63.5 118q-55 129 -55 270.5t55 270.5q26 62 63.5 118t85 103.5t103.5 85.5t118 64q129 54 271 54t271 -54q62 -26 118 -64t103.5 -85.5t85 -103.5
t63.5 -118q55 -129 55 -271v1zM547 915v-139l138 91h3v-422h166v564h-166zM968 915v-139l139 91h3v-422h165v564h-165z" />
    <glyph glyph-name="uniF34D" unicode="&#xf34d;" horiz-adv-x="1900" 
d="M950 1582q-175 0 -335 -68q-154 -65 -273 -184t-184 -274q-68 -160 -68 -334.5t68 -334.5q65 -155 184 -274t273 -184q160 -67 335 -67t335 67q154 65 273 184t184 274q68 160 68 334.5t-68 334.5q-65 155 -184 274t-273 184q-160 68 -335 68zM1646 722q0 -142 -55 -271
q-26 -62 -63.5 -118t-85 -103.5t-103.5 -85.5t-118 -64q-129 -54 -271 -54t-271 54q-62 26 -118 64t-103.5 85.5t-85 103.5t-63.5 118q-55 129 -55 270.5t55 270.5q26 62 63.5 118t85 103.5t103.5 85.5t118 64q129 54 271 54t271 -54q62 -26 118 -64t103.5 -85.5t85 -103.5
t63.5 -118q55 -129 55 -271v1zM499 915v-139l138 91h3v-422h166v564h-166zM1137 574l133 117q38 33 59 62q36 50 36 100.5t-27 89.5t-76.5 60.5t-118 21.5t-120.5 -24t-80.5 -68t-28.5 -101v-3h151v4q0 30 20.5 50t52 20t49.5 -15.5t18 -39t-13 -45t-42 -47.5l-226 -200
v-111h447v125h-233v4h-1z" />
    <glyph glyph-name="uniF34E" unicode="&#xf34e;" horiz-adv-x="1900" 
d="M950 1582q-175 0 -335 -68q-154 -65 -273 -184t-184 -274q-68 -160 -68 -334.5t68 -334.5q65 -155 184 -274t273 -184q160 -67 335 -67t335 67q154 65 273 184t184 274q68 160 68 334.5t-68 334.5q-65 155 -184 274t-273 184q-160 68 -335 68zM1646 722q0 -142 -55 -271
q-26 -62 -63.5 -118t-85 -103.5t-103.5 -85.5t-118 -64q-129 -54 -271 -54t-271 54q-62 26 -118 64t-103.5 85.5t-85 103.5t-63.5 118q-55 129 -55 270.5t55 270.5q26 62 63.5 118t85 103.5t103.5 85.5t118 64q129 54 271 54t271 -54q62 -26 118 -64t103.5 -85.5t85 -103.5
t63.5 -118q55 -129 55 -271v1zM500 915v-139l138 91h3v-422h166v564h-166zM1258 737v3q52 9 84.5 44t32.5 85q0 48 -26.5 83t-75.5 54t-115 19q-69 0 -121.5 -23.5t-81 -66t-28.5 -98.5h149q0 30 20.5 48.5t54 18.5t53 -15.5t19.5 -42t-19 -42.5t-51 -16h-69v-110h68
q35 0 54.5 -16t19.5 -43t-20 -44t-53 -17q-36 0 -57 16.5t-22 44.5h-158q3 -57 32.5 -100t81.5 -66t120 -23q74 0 129.5 21t85.5 60t30 91q0 57 -37 92.5t-100 42.5z" />
    <glyph glyph-name="uniF34F" unicode="&#xf34f;" horiz-adv-x="1900" 
d="M950 1582q-175 0 -335 -68q-154 -65 -273 -184t-184 -274q-68 -160 -68 -334.5t68 -334.5q65 -155 184 -274t273 -184q160 -67 335 -67t335 67q154 65 273 184t184 274q68 160 68 334.5t-68 334.5q-65 155 -184 274t-273 184q-160 68 -335 68zM1646 722q0 -142 -55 -271
q-26 -62 -63.5 -118t-85 -103.5t-103.5 -85.5t-118 -64q-129 -54 -271 -54t-271 54q-62 26 -118 64t-103.5 85.5t-85 103.5t-63.5 118q-55 129 -55 270.5t55 270.5q26 62 63.5 118t85 103.5t103.5 85.5t118 64q129 54 271 54t271 -54q62 -26 118 -64t103.5 -85.5t85 -103.5
t63.5 -118q55 -129 55 -271v1zM495 915v-139l139 91h3v-422h165v564h-165zM1346 1009h-229q-73 -111 -121 -191q-46 -77 -84 -152v-137h277v-84h157v84h67v127h-67v353zM1194 649h-144v5q32 68 66 127q25 44 75 120h3v-252z" />
    <glyph glyph-name="uniF350" unicode="&#xf350;" horiz-adv-x="1900" 
d="M950 1582q-175 0 -335 -68q-154 -65 -273 -184t-184 -274q-68 -160 -68 -334.5t68 -334.5q65 -155 184 -274t273 -184q160 -67 335 -67t335 67q154 65 273 184t184 274q68 160 68 334.5t-68 334.5q-65 155 -184 274t-273 184q-160 68 -335 68zM1646 722q0 -142 -55 -271
q-26 -62 -63.5 -118t-85 -103.5t-103.5 -85.5t-118 -64q-129 -54 -271 -54t-271 54q-62 26 -118 64t-103.5 85.5t-85 103.5t-63.5 118q-55 129 -55 270.5t55 270.5q26 62 63.5 118t85 103.5t103.5 85.5t118 64q129 54 271 54t271 -54q62 -26 118 -64t103.5 -85.5t85 -103.5
t63.5 -118q55 -129 55 -271v1zM501 915v-139l138 91h3v-422h166v564h-166zM1216 828q-45 0 -77 -18.5t-48 -50.5h-3l8 125h267v125h-394l-25 -333h145q12 19 32.5 30t44.5 11q35 0 57 -22.5t22 -59t-22 -58.5t-57 -22q-31 0 -54 16.5t-28 42.5h-149q1 -53 30 -95t81.5 -65.5
t118.5 -23.5q70 0 123 26t82.5 73t29.5 109q0 55 -24 98t-66 67.5t-94 24.5z" />
    <glyph glyph-name="uniF351" unicode="&#xf351;" horiz-adv-x="1900" 
d="M950 1582q-175 0 -335 -68q-154 -65 -273 -184t-184 -274q-68 -160 -68 -334.5t68 -334.5q65 -155 184 -274t273 -184q160 -67 335 -67t335 67q154 65 273 184t184 274q68 160 68 334.5t-68 334.5q-65 155 -184 274t-273 184q-160 68 -335 68zM1646 722q0 -142 -55 -271
q-26 -62 -63.5 -118t-85 -103.5t-103.5 -85.5t-118 -64q-129 -54 -271 -54t-271 54q-62 26 -118 64t-103.5 85.5t-85 103.5t-63.5 118q-55 129 -55 270.5t55 270.5q26 62 63.5 118t85 103.5t103.5 85.5t118 64q129 54 271 54t271 -54q62 -26 118 -64t103.5 -85.5t85 -103.5
t63.5 -118q55 -129 55 -271v1zM497 915v-139l138 91h3v-422h166v564h-166zM1220 821q-54 0 -92 -26q-36 -24 -51 -66h-3q-4 51 7 90t34.5 60t55.5 21q24 0 42.5 -11.5t24.5 -29.5h161q-7 48 -38.5 85.5t-81 59t-108.5 21.5q-76 0 -133.5 -36t-89 -103.5t-31.5 -158.5
q0 -66 17.5 -122t50 -95t81 -59.5t106.5 -20.5q68 0 121 26t83 73t30 106q0 53 -24.5 95.5t-67 66.5t-94.5 24zM1170 555q-32 0 -54 22t-22 53.5t22 53t54.5 21.5t54.5 -21.5t22 -53t-22 -53.5t-55 -22z" />
    <glyph glyph-name="uniF352" unicode="&#xf352;" horiz-adv-x="1900" 
d="M950 1582q-175 0 -335 -68q-154 -65 -273 -184t-184 -274q-68 -160 -68 -334.5t68 -334.5q65 -155 184 -274t273 -184q160 -67 335 -67t335 67q154 65 273 184t184 274q68 160 68 334.5t-68 334.5q-65 155 -184 274t-273 184q-160 68 -335 68zM1646 722q0 -142 -55 -271
q-26 -62 -63.5 -118t-85 -103.5t-103.5 -85.5t-118 -64q-129 -54 -271 -54t-271 54q-62 26 -118 64t-103.5 85.5t-85 103.5t-63.5 118q-55 129 -55 270.5t55 270.5q26 62 63.5 118t85 103.5t103.5 85.5t118 64q129 54 271 54t271 -54q62 -26 118 -64t103.5 -85.5t85 -103.5
t63.5 -118q55 -129 55 -271v1zM525 915v-139l138 91h4v-422h165v564h-165zM936 884h270v-3l-230 -436h174l220 440v124h-434v-125z" />
    <glyph glyph-name="uniF353" unicode="&#xf353;" horiz-adv-x="1900" 
d="M950 1582q-175 0 -335 -68q-154 -65 -273 -184t-184 -274q-68 -160 -68 -334.5t68 -334.5q65 -155 184 -274t273 -184q160 -67 335 -67t335 67q154 65 273 184t184 274q68 160 68 334.5t-68 334.5q-65 155 -184 274t-273 184q-160 68 -335 68zM1646 722q0 -142 -55 -271
q-26 -62 -63.5 -118t-85 -103.5t-103.5 -85.5t-118 -64q-129 -54 -271 -54t-271 54q-62 26 -118 64t-103.5 85.5t-85 103.5t-63.5 118q-55 129 -55 270.5t55 270.5q26 62 63.5 118t85 103.5t103.5 85.5t118 64q129 54 271 54t271 -54q62 -26 118 -64t103.5 -85.5t85 -103.5
t63.5 -118q55 -129 55 -271v1zM484 915v-139l139 91h3v-422h165v564h-165zM1267 742v3q52 9 86 45.5t34 84.5q0 43 -29 77t-81 53.5t-119.5 19.5t-120 -19.5t-81.5 -53.5t-29 -77q0 -48 34.5 -84.5t87.5 -45.5v-3q-64 -6 -104 -45.5t-40 -98.5q0 -50 31 -88t88 -59
t132.5 -21t133 21t89 59t31.5 88q0 58 -40 98t-103 46zM1157 915q29 0 48 -18t19 -44.5t-19 -44.5t-47.5 -18t-47.5 18t-19 44.5t19 44.5t47 18zM1157 540q-34 0 -56 20t-22 50.5t22 50.5t56.5 20t56 -20t21.5 -50.5t-21.5 -50.5t-56.5 -20z" />
    </font>
</defs>
</svg>
